<?xml version="1.0" encoding="utf-8"?>
<!-- Generator: Adobe Illustrator 27.2.0, SVG Export Plug-In . SVG Version: 6.00 Build 0)  -->
<svg version="1.1" id="Layer_1" xmlns="http://www.w3.org/2000/svg" xmlns:xlink="http://www.w3.org/1999/xlink" x="0px" y="0px"
	 viewBox="0 0 35 35" style="enable-background:new 0 0 35 35;" xml:space="preserve">
<style type="text/css">
	.st0{fill:#FFFFFF;}
	.st1{fill:#231F20;}
</style>
<g>
	<path class="st0" d="M5.07,1.82c-1.79,0-3.24,1.45-3.24,3.24v24.87c0,1.79,1.46,3.24,3.24,3.24h24.87c1.79,0,3.24-1.45,3.24-3.24
		V5.07c0-1.79-1.45-3.24-3.24-3.24H5.07z"/>
	<path class="st1" d="M29.93,1.16H5.07c-2.15,0-3.9,1.75-3.9,3.9v24.87c0,2.16,1.75,3.9,3.9,3.9h24.87c2.15,0,3.9-1.75,3.9-3.9V5.07
		C33.84,2.91,32.09,1.16,29.93,1.16 M28.94,10.23l0.61,1.06l-4.03,2.33l-0.61-1.06L28.94,10.23z M23.59,5.47l1.07,0.59l-2.26,4.07
		l-1.07-0.6L23.59,5.47z M16.88,4.02h1.23v4.66h-1.23V4.02z M11.48,5.34l2.47,3.95l-1.04,0.65L10.44,6L11.48,5.34z M6.15,9.91
		l4.07,2.26l-0.59,1.07l-4.07-2.26L6.15,9.91z M3.78,16.7h4.66v1.23H3.78V16.7z M5.8,24.56l-0.64-1.04l3.95-2.47l0.64,1.04
		L5.8,24.56z M11.21,29.73l-1.07-0.59l2.26-4.08l1.07,0.59L11.21,29.73z M18.04,31.33h-1.23v-4.66h1.23V31.33z M23.85,29.68
		l-2.33-4.04l1.06-0.61l2.33,4.03L23.85,29.68z M17.5,25.22c-4.18,0-7.57-3.39-7.57-7.57c0-4.18,3.39-7.57,7.57-7.57
		c4.18,0,7.56,3.39,7.56,7.57C25.06,21.84,21.68,25.22,17.5,25.22 M29.15,24.64l-4.07-2.26l0.59-1.07l4.08,2.26L29.15,24.64z
		 M31.19,17.99h-4.66v-1.22h4.66V17.99z"/>
</g>
</svg>
