<svg width="237" height="237" xmlns="http://www.w3.org/2000/svg" xmlns:xlink="http://www.w3.org/1999/xlink" xml:space="preserve" overflow="hidden"><g transform="translate(-542 -262)"><path d="M561.75 336.062C561.75 333.347 563.972 331.125 566.688 331.125L601.25 331.125 601.25 370.625 561.75 370.625 561.75 336.062ZM611.125 331.125 650.625 331.125 650.625 370.625 611.125 370.625 611.125 331.125ZM660.5 331.125 700 331.125 700 370.625 660.5 370.625 660.5 331.125ZM709.875 331.125 742.709 331.125C747.4 331.125 751.597 334.581 752.338 339.272L758.016 374.328C758.509 378.031 759.003 381.734 759.003 385.438L724.688 385.438 709.875 370.625 709.875 331.125ZM551.875 331.125 551.875 420C551.875 425.431 556.319 429.875 561.75 429.875L562.244 429.875C561.997 428.394 561.75 426.666 561.75 424.938 561.75 411.359 572.859 400.25 586.438 400.25 600.016 400.25 611.125 411.359 611.125 424.938 611.125 426.666 610.878 428.394 610.631 429.875L700.494 429.875C700.247 428.394 700 426.666 700 424.938 700 411.359 711.109 400.25 724.688 400.25 738.266 400.25 749.375 411.359 749.375 424.938 749.375 426.666 749.128 428.394 748.881 429.875L759.25 429.875C764.681 429.875 769.125 425.431 769.125 420L769.125 388.4C769.125 383.216 768.631 377.784 767.891 372.6L762.213 337.297C760.484 327.916 752.338 321.003 742.709 321.003L561.75 321.003C556.319 321.25 551.875 325.694 551.875 331.125Z"/><path d="M741.969 424.938C741.969 434.482 734.232 442.219 724.688 442.219 715.143 442.219 707.406 434.482 707.406 424.938 707.406 415.393 715.143 407.656 724.688 407.656 734.232 407.656 741.969 415.393 741.969 424.938Z"/><path d="M603.719 424.938C603.719 434.482 595.982 442.219 586.438 442.219 576.893 442.219 569.156 434.482 569.156 424.938 569.156 415.393 576.893 407.656 586.438 407.656 595.982 407.656 603.719 415.393 603.719 424.938Z"/></g></svg>