<svg version="1.1" id="Layer_1" xmlns="http://www.w3.org/2000/svg" xmlns:xlink="http://www.w3.org/1999/xlink" x="0px" y="0px"
	 width="100%" viewBox="0 0 262 185" enable-background="new 0 0 262 185" xml:space="preserve">
<path fill="#FEFEFE" opacity="1.000000" stroke="none" 
	d="
M192.000000,186.000000 
	C128.000015,186.000000 64.500023,186.000000 1.000026,186.000000 
	C1.000017,124.333359 1.000017,62.666710 1.000009,1.000050 
	C88.333290,1.000034 175.666580,1.000034 262.999908,1.000017 
	C262.999939,62.666615 262.999939,124.333229 262.999969,185.999924 
	C239.500000,186.000000 216.000000,186.000000 192.000000,186.000000 
M225.170120,106.499985 
	C226.134033,85.505791 221.764999,65.096375 218.145935,44.634792 
	C216.329849,34.366905 208.606674,28.050514 198.595764,28.039055 
	C138.961502,27.970787 79.327126,27.982212 19.692829,28.021738 
	C12.076527,28.026789 8.069246,31.809595 8.042089,39.282349 
	C7.937365,68.099686 7.950942,96.917763 8.034395,125.735245 
	C8.054438,132.656250 10.632102,135.340210 17.702881,136.698944 
	C19.214792,117.272972 28.124256,106.827705 42.850765,107.216118 
	C57.540756,107.603569 66.519936,118.410774 67.211853,136.680023 
	C96.884315,136.680023 126.561600,136.680023 156.254074,136.680023 
	C155.392822,119.819504 164.455093,108.405556 179.564255,107.361122 
	C185.554260,106.947060 190.943573,108.921623 195.782028,112.638374 
	C203.840912,118.828972 205.897614,127.328575 205.173218,137.001923 
	C207.947647,137.001923 210.265442,137.021606 212.582825,136.998428 
	C221.212051,136.912140 225.086609,133.081802 225.160797,124.490654 
	C225.209686,118.827477 225.170090,113.163536 225.170120,106.499985 
M40.774693,149.089890 
	C48.104282,149.561127 53.847649,146.764572 57.499096,140.388779 
	C60.716885,134.770187 60.634529,128.919678 57.386814,123.277161 
	C53.395473,116.342659 45.247639,113.130928 37.580681,115.326225 
	C30.225424,117.432289 24.927582,124.564690 25.096375,132.133682 
	C25.286560,140.661926 30.809990,146.958344 40.774693,149.089890 
M191.735382,118.669998 
	C183.816818,113.215950 175.248444,113.422432 168.959244,119.218864 
	C163.155533,124.567833 161.626770,133.288895 165.514618,140.168579 
	C169.108276,146.527664 174.654999,149.602997 182.016266,149.096527 
	C189.211563,148.601456 194.215576,144.733643 196.767303,138.228607 
	C199.581070,131.055511 197.916168,124.544830 191.735382,118.669998 
z"/>
<path fill="#020202" opacity="1.000000" stroke="none" 
	d="
M225.170120,106.999962 
	C225.170090,113.163536 225.209686,118.827477 225.160797,124.490654 
	C225.086609,133.081802 221.212051,136.912140 212.582825,136.998428 
	C210.265442,137.021606 207.947647,137.001923 205.173218,137.001923 
	C205.897614,127.328575 203.840912,118.828972 195.782028,112.638374 
	C190.943573,108.921623 185.554260,106.947060 179.564255,107.361122 
	C164.455093,108.405556 155.392822,119.819504 156.254074,136.680023 
	C126.561600,136.680023 96.884315,136.680023 67.211853,136.680023 
	C66.519936,118.410774 57.540756,107.603569 42.850765,107.216118 
	C28.124256,106.827705 19.214792,117.272972 17.702881,136.698944 
	C10.632102,135.340210 8.054438,132.656250 8.034395,125.735245 
	C7.950942,96.917763 7.937365,68.099686 8.042089,39.282349 
	C8.069246,31.809595 12.076527,28.026789 19.692829,28.021738 
	C79.327126,27.982212 138.961502,27.970787 198.595764,28.039055 
	C208.606674,28.050514 216.329849,34.366905 218.145935,44.634792 
	C221.764999,65.096375 226.134033,85.505791 225.170120,106.999962 
M174.873535,86.676453 
	C177.271866,88.611580 179.583374,92.075363 182.083542,92.217361 
	C192.939163,92.833908 203.849762,92.481834 215.766113,92.481834 
	C213.021378,76.025932 210.720352,60.277405 207.478561,44.724972 
	C206.940933,42.145714 202.402603,38.781662 199.529938,38.594730 
	C188.495483,37.876690 177.386520,38.303894 165.999619,38.303894 
	C165.999619,47.844490 166.612518,57.020363 165.822510,66.073814 
	C165.073669,74.655502 167.325867,81.245056 174.873535,86.676453 
M141.493439,38.161819 
	C133.244690,38.161819 124.995926,38.161819 116.773117,38.161819 
	C116.773117,51.749538 116.773117,64.674530 116.773117,77.517326 
	C129.970093,77.517326 142.879395,77.517326 155.700775,77.517326 
	C155.700775,64.280190 155.700775,51.366070 155.700775,38.161819 
	C151.098419,38.161819 146.793808,38.161819 141.493439,38.161819 
M17.827320,70.429886 
	C17.827320,72.844040 17.827320,75.258202 17.827320,77.505127 
	C21.667110,77.505127 24.738991,77.505127 28.003885,77.505127 
	C28.003885,74.687347 28.054314,72.196884 27.995365,69.709007 
	C27.702301,57.340153 28.853865,56.486061 40.566765,56.970413 
	C45.845787,57.188705 47.905396,59.009842 47.982914,64.344292 
	C48.047253,68.772041 47.996082,73.201462 47.996082,77.539787 
	C51.411541,77.539787 54.159187,77.539787 56.886578,77.539787 
	C56.886578,64.331085 56.886578,51.422321 56.886578,38.162689 
	C45.973953,38.162689 35.343307,38.124390 24.713129,38.178501 
	C19.224188,38.206440 17.896875,39.508999 17.847031,44.959980 
	C17.772394,53.122440 17.827431,61.286079 17.827320,70.429886 
M88.353317,56.013977 
	C96.563377,56.019505 97.985344,57.459743 97.985977,65.771271 
	C97.986282,69.713608 97.986031,73.655945 97.986031,77.501137 
	C101.309998,77.501137 104.021492,77.501137 106.567078,77.501137 
	C106.567078,64.228333 106.567078,51.307053 106.567078,38.370697 
	C93.359344,38.370697 80.437035,38.370697 67.468536,38.370697 
	C67.468536,51.648960 67.468536,64.702904 67.468536,77.614777 
	C70.066483,77.614777 72.341927,77.614777 75.013969,77.614777 
	C75.013969,74.420235 75.013969,71.456177 75.013969,68.492119 
	C75.013969,56.504814 75.502151,56.013977 88.353317,56.013977 
z"/>
<path fill="#030303" opacity="1.000000" stroke="none" 
	d="
M40.347008,149.060471 
	C30.809990,146.958344 25.286560,140.661926 25.096375,132.133682 
	C24.927582,124.564690 30.225424,117.432289 37.580681,115.326225 
	C45.247639,113.130928 53.395473,116.342659 57.386814,123.277161 
	C60.634529,128.919678 60.716885,134.770187 57.499096,140.388779 
	C53.847649,146.764572 48.104282,149.561127 40.347008,149.060471 
z"/>
<path fill="#030303" opacity="1.000000" stroke="none" 
	d="
M192.013458,118.912971 
	C197.916168,124.544830 199.581070,131.055511 196.767303,138.228607 
	C194.215576,144.733643 189.211563,148.601456 182.016266,149.096527 
	C174.654999,149.602997 169.108276,146.527664 165.514618,140.168579 
	C161.626770,133.288895 163.155533,124.567833 168.959244,119.218864 
	C175.248444,113.422432 183.816818,113.215950 192.013458,118.912971 
z"/>
<path fill="#FDFDFD" opacity="1.000000" stroke="none" 
	d="
M174.620575,86.420258 
	C167.325867,81.245056 165.073669,74.655502 165.822510,66.073814 
	C166.612518,57.020363 165.999619,47.844490 165.999619,38.303894 
	C177.386520,38.303894 188.495483,37.876690 199.529938,38.594730 
	C202.402603,38.781662 206.940933,42.145714 207.478561,44.724972 
	C210.720352,60.277405 213.021378,76.025932 215.766113,92.481834 
	C203.849762,92.481834 192.939163,92.833908 182.083542,92.217361 
	C179.583374,92.075363 177.271866,88.611580 174.620575,86.420258 
z"/>
<path fill="#FBFBFB" opacity="1.000000" stroke="none" 
	d="
M141.991333,38.161819 
	C146.793808,38.161819 151.098419,38.161819 155.700775,38.161819 
	C155.700775,51.366070 155.700775,64.280190 155.700775,77.517326 
	C142.879395,77.517326 129.970093,77.517326 116.773117,77.517326 
	C116.773117,64.674530 116.773117,51.749538 116.773117,38.161819 
	C124.995926,38.161819 133.244690,38.161819 141.991333,38.161819 
z"/>
<path fill="#FBFBFB" opacity="1.000000" stroke="none" 
	d="
M17.827318,69.939552 
	C17.827431,61.286079 17.772394,53.122440 17.847031,44.959980 
	C17.896875,39.508999 19.224188,38.206440 24.713129,38.178501 
	C35.343307,38.124390 45.973953,38.162689 56.886578,38.162689 
	C56.886578,51.422321 56.886578,64.331085 56.886578,77.539787 
	C54.159187,77.539787 51.411541,77.539787 47.996082,77.539787 
	C47.996082,73.201462 48.047253,68.772041 47.982914,64.344292 
	C47.905396,59.009842 45.845787,57.188705 40.566765,56.970413 
	C28.853865,56.486061 27.702301,57.340153 27.995365,69.709007 
	C28.054314,72.196884 28.003885,74.687347 28.003885,77.505127 
	C24.738991,77.505127 21.667110,77.505127 17.827320,77.505127 
	C17.827320,75.258202 17.827320,72.844040 17.827318,69.939552 
M32.986458,43.537945 
	C29.964556,48.784271 32.076057,54.340614 37.147114,55.049267 
	C41.047482,55.594322 43.505379,53.061821 44.502083,50.500019 
	C45.249386,48.579243 43.951134,45.138340 42.462677,43.235344 
	C39.997612,40.083748 36.604855,40.267208 32.986458,43.537945 
z"/>
<path fill="#F6F6F6" opacity="1.000000" stroke="none" 
	d="
M87.888954,56.013977 
	C75.502151,56.013977 75.013969,56.504814 75.013969,68.492119 
	C75.013969,71.456177 75.013969,74.420235 75.013969,77.614777 
	C72.341927,77.614777 70.066483,77.614777 67.468536,77.614777 
	C67.468536,64.702904 67.468536,51.648960 67.468536,38.370697 
	C80.437035,38.370697 93.359344,38.370697 106.567078,38.370697 
	C106.567078,51.307053 106.567078,64.228333 106.567078,77.501137 
	C104.021492,77.501137 101.309998,77.501137 97.986031,77.501137 
	C97.986031,73.655945 97.986282,69.713608 97.985977,65.771271 
	C97.985344,57.459743 96.563377,56.019505 87.888954,56.013977 
M90.882225,53.619091 
	C93.195381,51.589741 95.442680,49.192596 93.419426,46.100178 
	C91.500420,43.167110 88.308960,40.748394 84.707520,42.338028 
	C82.396751,43.357960 79.309357,46.286949 79.423149,48.189545 
	C79.560989,50.494141 82.405083,53.056767 84.682732,54.635414 
	C85.812622,55.418545 88.295341,54.249836 90.882225,53.619091 
z"/>
<path fill="#000000" opacity="1.000000" stroke="none" 
	d="
M33.263821,43.261055 
	C36.604855,40.267208 39.997612,40.083748 42.462677,43.235344 
	C43.951134,45.138340 45.249386,48.579243 44.502083,50.500019 
	C43.505379,53.061821 41.047482,55.594322 37.147114,55.049267 
	C32.076057,54.340614 29.964556,48.784271 33.263821,43.261055 
z"/>
<path fill="#000000" opacity="1.000000" stroke="none" 
	d="
M90.524124,53.791626 
	C88.295341,54.249836 85.812622,55.418545 84.682732,54.635414 
	C82.405083,53.056767 79.560989,50.494141 79.423149,48.189545 
	C79.309357,46.286949 82.396751,43.357960 84.707520,42.338028 
	C88.308960,40.748394 91.500420,43.167110 93.419426,46.100178 
	C95.442680,49.192596 93.195381,51.589741 90.524124,53.791626 
z"/>
</svg>