<svg version="1.1" id="Layer_1" xmlns="http://www.w3.org/2000/svg" xmlns:xlink="http://www.w3.org/1999/xlink" x="0px" y="0px"
	 width="100%" viewBox="0 0 262 185" enable-background="new 0 0 262 185" xml:space="preserve">
<path fill="#FEFEFE" opacity="1.000000" stroke="none" 
	d="
M192.000000,186.000000 
	C128.000015,186.000000 64.500023,186.000000 1.000026,186.000000 
	C1.000017,124.333359 1.000017,62.666710 1.000009,1.000050 
	C88.333290,1.000034 175.666580,1.000034 262.999908,1.000017 
	C262.999939,62.666615 262.999939,124.333229 262.999969,185.999924 
	C239.500000,186.000000 216.000000,186.000000 192.000000,186.000000 
M172.621826,108.810539 
	C180.213547,106.004036 187.522629,107.007164 194.094727,111.360191 
	C203.096436,117.322456 206.284882,126.231438 205.067703,136.991592 
	C208.517822,136.991592 211.500641,137.144089 214.462540,136.960159 
	C220.838120,136.564255 224.796143,132.812347 225.106781,126.599724 
	C226.512177,98.493050 223.817017,70.708549 217.890213,43.249256 
	C215.913116,34.089260 208.032684,28.050472 198.675308,28.040098 
	C139.022995,27.973965 79.370583,27.983015 19.718245,28.021019 
	C12.092096,28.025877 8.070143,31.801353 8.042649,39.262264 
	C7.936426,68.088310 7.951206,96.915115 8.034206,125.741318 
	C8.053996,132.614349 10.694277,135.364090 17.713449,136.696945 
	C19.155659,117.325935 28.137268,106.803253 42.874851,107.218330 
	C57.523972,107.630920 66.390808,118.308411 67.239662,136.648102 
	C96.904976,136.648102 126.573364,136.648102 156.258560,136.648102 
	C155.508545,122.574425 159.977249,114.768883 172.621826,108.810539 
M26.199682,137.992142 
	C26.901608,139.305573 27.482567,140.702881 28.325602,141.918442 
	C32.907848,148.525681 41.609745,150.999878 49.117729,147.902039 
	C56.555744,144.833099 60.969578,136.736832 59.460548,128.930267 
	C57.528648,118.936081 48.155373,112.840515 38.249630,115.136520 
	C28.658035,117.359711 23.497082,126.665283 26.199682,137.992142 
M164.087570,126.838509 
	C163.860718,128.146561 163.525253,129.446304 163.424484,130.764008 
	C162.725830,139.899689 169.789291,148.330704 178.710922,149.067566 
	C188.610123,149.885178 197.013229,143.189117 197.927872,133.754471 
	C198.743851,125.337608 193.290985,117.366714 185.264160,115.242897 
	C176.456436,112.912460 168.815613,116.872528 164.087570,126.838509 
z"/>
<path fill="#020202" opacity="1.000000" stroke="none" 
	d="
M172.240265,108.911362 
	C159.977249,114.768883 155.508545,122.574425 156.258560,136.648102 
	C126.573364,136.648102 96.904976,136.648102 67.239662,136.648102 
	C66.390808,118.308411 57.523972,107.630920 42.874851,107.218330 
	C28.137268,106.803253 19.155659,117.325935 17.713449,136.696945 
	C10.694277,135.364090 8.053996,132.614349 8.034206,125.741318 
	C7.951206,96.915115 7.936426,68.088310 8.042649,39.262264 
	C8.070143,31.801353 12.092096,28.025877 19.718245,28.021019 
	C79.370583,27.983015 139.022995,27.973965 198.675308,28.040098 
	C208.032684,28.050472 215.913116,34.089260 217.890213,43.249256 
	C223.817017,70.708549 226.512177,98.493050 225.106781,126.599724 
	C224.796143,132.812347 220.838120,136.564255 214.462540,136.960159 
	C211.500641,137.144089 208.517822,136.991592 205.067703,136.991592 
	C206.284882,126.231438 203.096436,117.322456 194.094727,111.360191 
	C187.522629,107.007164 180.213547,106.004036 172.240265,108.911362 
M210.153519,58.292706 
	C209.573151,54.679111 209.111679,51.041458 208.386490,47.457161 
	C207.071487,40.957558 203.975143,38.362816 197.397598,38.188061 
	C193.401077,38.081882 189.399445,38.167339 185.400116,38.167194 
	C178.978088,38.166962 172.556046,38.167130 165.999756,38.167130 
	C165.999756,46.373104 166.769440,53.966793 165.825211,61.341019 
	C164.284103,73.376595 167.832504,82.674294 177.764969,89.580147 
	C178.301758,89.953384 178.629684,90.659103 179.189240,90.960747 
	C180.304657,91.562065 181.509109,92.411201 182.684570,92.423630 
	C193.304688,92.536064 203.926483,92.489449 215.645569,92.489449 
	C213.808640,81.027504 212.055466,70.088043 210.153519,58.292706 
M106.844093,46.565159 
	C106.844093,43.809742 106.844093,41.054325 106.844093,38.390419 
	C93.297318,38.390419 80.395142,38.390419 67.479675,38.390419 
	C67.479675,51.647469 67.479675,64.667427 67.479675,77.607422 
	C80.707085,77.607422 93.609383,77.607422 106.844093,77.607422 
	C106.844093,67.433052 106.844093,57.491844 106.844093,46.565159 
M144.476151,38.162205 
	C135.229660,38.162205 125.983185,38.162205 116.778915,38.162205 
	C116.778915,51.764187 116.778915,64.689507 116.778915,77.510376 
	C129.982498,77.510376 142.893112,77.510376 155.692703,77.510376 
	C155.692703,64.266457 155.692703,51.352139 155.692703,38.162205 
	C152.078751,38.162205 148.772858,38.162205 144.476151,38.162205 
M47.996254,69.528458 
	C47.996254,72.274696 47.996254,75.020927 47.996254,77.639847 
	C51.415276,77.639847 54.039375,77.639847 56.808529,77.639847 
	C56.808529,64.425583 56.808529,51.411259 56.808529,38.173260 
	C45.468781,38.173260 34.491432,38.184723 23.514137,38.166435 
	C20.118996,38.160782 17.961145,39.762775 17.924067,43.163376 
	C17.799370,54.599659 17.876650,66.038147 17.876650,77.599815 
	C21.452917,77.599815 24.528524,77.599815 28.003750,77.599815 
	C28.003750,74.905518 28.053614,72.442154 27.995489,69.981346 
	C27.670023,56.202560 29.376852,56.840286 41.296165,56.912758 
	C45.842785,56.940407 47.386944,59.362083 47.948711,63.083447 
	C48.219223,64.875443 47.995937,66.741982 47.996254,69.528458 
z"/>
<path fill="#030303" opacity="1.000000" stroke="none" 
	d="
M26.100906,137.605896 
	C23.497082,126.665283 28.658035,117.359711 38.249630,115.136520 
	C48.155373,112.840515 57.528648,118.936081 59.460548,128.930267 
	C60.969578,136.736832 56.555744,144.833099 49.117729,147.902039 
	C41.609745,150.999878 32.907848,148.525681 28.325602,141.918442 
	C27.482567,140.702881 26.901608,139.305573 26.100906,137.605896 
z"/>
<path fill="#030303" opacity="1.000000" stroke="none" 
	d="
M164.203217,126.468445 
	C168.815613,116.872528 176.456436,112.912460 185.264160,115.242897 
	C193.290985,117.366714 198.743851,125.337608 197.927872,133.754471 
	C197.013229,143.189117 188.610123,149.885178 178.710922,149.067566 
	C169.789291,148.330704 162.725830,139.899689 163.424484,130.764008 
	C163.525253,129.446304 163.860718,128.146561 164.203217,126.468445 
z"/>
<path fill="#FDFDFD" opacity="1.000000" stroke="none" 
	d="
M210.227905,58.720642 
	C212.055466,70.088043 213.808640,81.027504 215.645569,92.489449 
	C203.926483,92.489449 193.304688,92.536064 182.684570,92.423630 
	C181.509109,92.411201 180.304657,91.562065 179.189240,90.960747 
	C178.629684,90.659103 178.301758,89.953384 177.764969,89.580147 
	C167.832504,82.674294 164.284103,73.376595 165.825211,61.341019 
	C166.769440,53.966793 165.999756,46.373104 165.999756,38.167130 
	C172.556046,38.167130 178.978088,38.166962 185.400116,38.167194 
	C189.399445,38.167339 193.401077,38.081882 197.397598,38.188061 
	C203.975143,38.362816 207.071487,40.957558 208.386490,47.457161 
	C209.111679,51.041458 209.573151,54.679111 210.227905,58.720642 
z"/>
<path fill="#F9F9F9" opacity="1.000000" stroke="none" 
	d="
M106.844093,47.057899 
	C106.844093,57.491844 106.844093,67.433052 106.844093,77.607422 
	C93.609383,77.607422 80.707085,77.607422 67.479675,77.607422 
	C67.479675,64.667427 67.479675,51.647469 67.479675,38.390419 
	C80.395142,38.390419 93.297318,38.390419 106.844093,38.390419 
	C106.844093,41.054325 106.844093,43.809742 106.844093,47.057899 
z"/>
<path fill="#FBFBFB" opacity="1.000000" stroke="none" 
	d="
M144.971558,38.162205 
	C148.772858,38.162205 152.078751,38.162205 155.692703,38.162205 
	C155.692703,51.352139 155.692703,64.266457 155.692703,77.510376 
	C142.893112,77.510376 129.982498,77.510376 116.778915,77.510376 
	C116.778915,64.689507 116.778915,51.764187 116.778915,38.162205 
	C125.983185,38.162205 135.229660,38.162205 144.971558,38.162205 
z"/>
<path fill="#FBFBFB" opacity="1.000000" stroke="none" 
	d="
M47.996254,69.051613 
	C47.995937,66.741982 48.219223,64.875443 47.948711,63.083447 
	C47.386944,59.362083 45.842785,56.940407 41.296165,56.912758 
	C29.376852,56.840286 27.670023,56.202560 27.995489,69.981346 
	C28.053614,72.442154 28.003750,74.905518 28.003750,77.599815 
	C24.528524,77.599815 21.452917,77.599815 17.876650,77.599815 
	C17.876650,66.038147 17.799370,54.599659 17.924067,43.163376 
	C17.961145,39.762775 20.118996,38.160782 23.514137,38.166435 
	C34.491432,38.184723 45.468781,38.173260 56.808529,38.173260 
	C56.808529,51.411259 56.808529,64.425583 56.808529,77.639847 
	C54.039375,77.639847 51.415276,77.639847 47.996254,77.639847 
	C47.996254,75.020927 47.996254,72.274696 47.996254,69.051613 
M42.474018,42.994850 
	C38.001438,40.411625 34.729832,40.778435 32.366535,44.170048 
	C29.786766,47.872341 31.093893,50.976341 34.100552,53.577301 
	C36.860149,55.964531 39.624603,55.750118 42.335094,53.193565 
	C45.583294,50.129845 46.661415,47.050415 42.474018,42.994850 
z"/>
<path fill="#000000" opacity="1.000000" stroke="none" 
	d="
M42.751305,43.276718 
	C46.661415,47.050415 45.583294,50.129845 42.335094,53.193565 
	C39.624603,55.750118 36.860149,55.964531 34.100552,53.577301 
	C31.093893,50.976341 29.786766,47.872341 32.366535,44.170048 
	C34.729832,40.778435 38.001438,40.411625 42.751305,43.276718 
z"/>
</svg>