<svg version="1.1" id="Layer_1" xmlns="http://www.w3.org/2000/svg" xmlns:xlink="http://www.w3.org/1999/xlink" x="0px" y="0px"
	 width="100%" viewBox="0 0 262 185" enable-background="new 0 0 262 185" xml:space="preserve">
<path fill="#FEFEFE" opacity="1.000000" stroke="none" 
	d="
M192.000000,186.000000 
	C128.000015,186.000000 64.500023,186.000000 1.000026,186.000000 
	C1.000017,124.333359 1.000017,62.666710 1.000009,1.000050 
	C88.333290,1.000034 175.666580,1.000034 262.999908,1.000017 
	C262.999939,62.666615 262.999939,124.333229 262.999969,185.999924 
	C239.500000,186.000000 216.000000,186.000000 192.000000,186.000000 
M48.202446,107.995010 
	C62.383423,112.400513 67.923851,122.607376 67.089851,136.704742 
	C97.106873,136.704742 126.674927,136.704742 156.255554,136.704742 
	C155.401016,119.830894 164.413681,108.443367 179.525879,107.365021 
	C185.519653,106.937332 190.916077,108.901276 195.754211,112.618240 
	C203.808151,118.805801 205.922821,127.288040 205.155502,136.989075 
	C208.591446,136.989075 211.585007,137.153168 214.554428,136.955200 
	C220.918930,136.530884 224.807068,132.756027 225.115677,126.507996 
	C226.495621,98.571075 223.814880,70.956856 217.984451,43.649567 
	C215.964966,34.191170 208.191071,28.047783 198.587509,28.037493 
	C138.937820,27.973570 79.288033,27.981163 19.638323,28.023495 
	C12.032901,28.028894 8.066377,31.828423 8.040235,39.341946 
	C7.939944,68.166763 7.948829,96.992287 8.036822,125.817184 
	C8.057661,132.643845 10.816998,135.468018 17.787697,136.681519 
	C18.858332,115.618736 29.440683,105.310905 48.202446,107.995010 
M56.127647,142.529388 
	C61.654209,133.883118 60.717705,124.851547 53.667145,118.800377 
	C47.206215,113.255257 37.203651,113.387451 30.876583,119.101585 
	C23.653244,125.625160 23.136120,136.480362 29.707863,143.634613 
	C36.686642,151.231979 47.476452,151.015411 56.127647,142.529388 
M167.875122,143.568909 
	C174.716003,149.794052 182.810928,150.969864 189.685822,146.737000 
	C196.149506,142.757309 199.343079,135.038849 197.509048,127.829323 
	C195.814682,121.168861 190.285645,115.950356 183.788010,114.990913 
	C176.363098,113.894547 170.225433,116.200516 166.184433,122.615852 
	C161.806686,129.565811 162.582397,136.472534 167.875122,143.568909 
z"/>
<path fill="#020202" opacity="1.000000" stroke="none" 
	d="
M47.803108,107.914368 
	C29.440683,105.310905 18.858332,115.618736 17.787697,136.681519 
	C10.816998,135.468018 8.057661,132.643845 8.036822,125.817184 
	C7.948829,96.992287 7.939944,68.166763 8.040235,39.341946 
	C8.066377,31.828423 12.032901,28.028894 19.638323,28.023495 
	C79.288033,27.981163 138.937820,27.973570 198.587509,28.037493 
	C208.191071,28.047783 215.964966,34.191170 217.984451,43.649567 
	C223.814880,70.956856 226.495621,98.571075 225.115677,126.507996 
	C224.807068,132.756027 220.918930,136.530884 214.554428,136.955200 
	C211.585007,137.153168 208.591446,136.989075 205.155502,136.989075 
	C205.922821,127.288040 203.808151,118.805801 195.754211,112.618240 
	C190.916077,108.901276 185.519653,106.937332 179.525879,107.365021 
	C164.413681,108.443367 155.401016,119.830894 156.255554,136.704742 
	C126.674927,136.704742 97.106873,136.704742 67.089851,136.704742 
	C67.923851,122.607376 62.383423,112.400513 47.803108,107.914368 
M166.533234,78.255783 
	C170.520126,82.256332 174.441193,86.326271 178.537491,90.211472 
	C179.641876,91.258957 181.267471,92.366928 182.671890,92.390938 
	C193.276550,92.572128 203.885712,92.489868 214.353363,92.489868 
	C214.641083,91.906853 214.943161,91.593674 214.903564,91.332237 
	C212.544556,75.754646 210.449371,60.125175 207.475922,44.664726 
	C206.999100,42.185467 202.682602,38.839157 199.972900,38.675293 
	C188.778763,37.998348 177.519928,38.391560 166.064224,38.391560 
	C166.064224,51.684731 166.064224,64.626961 166.533234,78.255783 
M121.717690,38.157253 
	C120.104469,38.157253 118.491249,38.157253 116.693573,38.157253 
	C116.693573,51.566971 116.693573,64.496536 116.693573,77.608215 
	C119.472939,77.608215 122.038216,77.608215 125.007660,77.608215 
	C125.007660,72.586121 124.986160,67.787987 125.013077,62.990135 
	C125.047256,56.897255 126.898895,55.017254 132.798676,55.007935 
	C133.965149,55.006092 135.131622,55.005718 136.298096,55.007996 
	C141.957108,55.019043 143.927155,56.926834 143.982254,62.587055 
	C144.030487,67.540329 143.992325,72.494453 143.992325,77.579361 
	C148.202866,77.579361 151.931061,77.579361 155.768799,77.579361 
	C155.768799,64.399590 155.768799,51.484337 155.768799,38.157253 
	C144.579361,38.157253 133.623718,38.157253 121.717690,38.157253 
M31.290329,57.200001 
	C34.110191,57.134682 36.929874,57.024044 39.749947,57.013168 
	C46.299274,56.987907 47.977901,58.731525 47.994156,65.498306 
	C48.003944,69.573250 47.995956,73.648247 47.995956,77.504181 
	C51.500683,77.504181 54.247173,77.504181 56.874557,77.504181 
	C56.874557,64.276688 56.874557,51.384876 56.874557,38.178165 
	C45.470242,38.178165 34.354702,37.989117 23.258547,38.367947 
	C21.450932,38.429657 18.253815,40.949333 18.201075,42.422504 
	C17.781906,54.130970 17.967520,65.861084 17.967520,77.549660 
	C21.579556,77.549660 24.649113,77.549660 28.004045,77.549660 
	C28.004045,73.798981 27.653305,70.282494 28.108185,66.873497 
	C28.517485,63.806076 29.810516,60.856575 31.290329,57.200001 
M67.148605,49.524666 
	C67.148605,58.942635 67.148605,68.360603 67.148605,77.598312 
	C70.107422,77.598312 72.378410,77.598312 75.014130,77.598312 
	C75.014130,75.215881 75.064842,73.080650 75.006012,70.948433 
	C74.581970,55.579853 75.446541,55.765091 89.959335,56.006016 
	C95.960197,56.105637 97.938759,57.981995 97.979500,63.874001 
	C98.011269,68.468338 97.985863,73.063065 97.985863,77.653580 
	C101.256020,77.653580 103.855194,77.653580 106.538193,77.653580 
	C106.538193,64.412453 106.538193,51.371258 106.538193,38.395191 
	C93.303398,38.395191 80.383240,38.395191 67.148605,38.395191 
	C67.148605,41.936546 67.148605,45.235458 67.148605,49.524666 
z"/>
<path fill="#030303" opacity="1.000000" stroke="none" 
	d="
M55.905861,142.821304 
	C47.476452,151.015411 36.686642,151.231979 29.707863,143.634613 
	C23.136120,136.480362 23.653244,125.625160 30.876583,119.101585 
	C37.203651,113.387451 47.206215,113.255257 53.667145,118.800377 
	C60.717705,124.851547 61.654209,133.883118 55.905861,142.821304 
z"/>
<path fill="#030303" opacity="1.000000" stroke="none" 
	d="
M167.631912,143.290710 
	C162.582397,136.472534 161.806686,129.565811 166.184433,122.615852 
	C170.225433,116.200516 176.363098,113.894547 183.788010,114.990913 
	C190.285645,115.950356 195.814682,121.168861 197.509048,127.829323 
	C199.343079,135.038849 196.149506,142.757309 189.685822,146.737000 
	C182.810928,150.969864 174.716003,149.794052 167.631912,143.290710 
z"/>
<path fill="#FDFDFD" opacity="1.000000" stroke="none" 
	d="
M166.298737,77.912491 
	C166.064224,64.626961 166.064224,51.684731 166.064224,38.391560 
	C177.519928,38.391560 188.778763,37.998348 199.972900,38.675293 
	C202.682602,38.839157 206.999100,42.185467 207.475922,44.664726 
	C210.449371,60.125175 212.544556,75.754646 214.903564,91.332237 
	C214.943161,91.593674 214.641083,91.906853 214.353363,92.489868 
	C203.885712,92.489868 193.276550,92.572128 182.671890,92.390938 
	C181.267471,92.366928 179.641876,91.258957 178.537491,90.211472 
	C174.441193,86.326271 170.520126,82.256332 166.298737,77.912491 
z"/>
<path fill="#F9F9F9" opacity="1.000000" stroke="none" 
	d="
M122.192886,38.157253 
	C133.623718,38.157253 144.579361,38.157253 155.768799,38.157253 
	C155.768799,51.484337 155.768799,64.399590 155.768799,77.579361 
	C151.931061,77.579361 148.202866,77.579361 143.992325,77.579361 
	C143.992325,72.494453 144.030487,67.540329 143.982254,62.587055 
	C143.927155,56.926834 141.957108,55.019043 136.298096,55.007996 
	C135.131622,55.005718 133.965149,55.006092 132.798676,55.007935 
	C126.898895,55.017254 125.047256,56.897255 125.013077,62.990135 
	C124.986160,67.787987 125.007660,72.586121 125.007660,77.608215 
	C122.038216,77.608215 119.472939,77.608215 116.693573,77.608215 
	C116.693573,64.496536 116.693573,51.566971 116.693573,38.157253 
	C118.491249,38.157253 120.104469,38.157253 122.192886,38.157253 
M138.316238,53.148956 
	C141.238327,51.899483 144.144363,49.792248 142.740112,46.623417 
	C141.686371,44.245525 138.676514,41.923351 136.088242,41.212658 
	C131.326294,39.905113 126.198174,43.519760 126.021988,47.325401 
	C125.853355,50.967621 130.093979,54.024906 135.294098,53.978931 
	C136.117599,53.971653 136.939926,53.830879 138.316238,53.148956 
z"/>
<path fill="#FBFBFB" opacity="1.000000" stroke="none" 
	d="
M31.002041,57.527531 
	C29.810516,60.856575 28.517485,63.806076 28.108185,66.873497 
	C27.653305,70.282494 28.004045,73.798981 28.004045,77.549660 
	C24.649113,77.549660 21.579556,77.549660 17.967520,77.549660 
	C17.967520,65.861084 17.781906,54.130970 18.201075,42.422504 
	C18.253815,40.949333 21.450932,38.429657 23.258547,38.367947 
	C34.354702,37.989117 45.470242,38.178165 56.874557,38.178165 
	C56.874557,51.384876 56.874557,64.276688 56.874557,77.504181 
	C54.247173,77.504181 51.500683,77.504181 47.995956,77.504181 
	C47.995956,73.648247 48.003944,69.573250 47.994156,65.498306 
	C47.977901,58.731525 46.299274,56.987907 39.749947,57.013168 
	C36.929874,57.024044 34.110191,57.134682 31.002041,57.527531 
M35.228638,54.748459 
	C36.211845,54.829830 37.520687,55.355057 38.121048,54.914597 
	C40.530483,53.146893 43.736370,51.499878 44.758179,49.027328 
	C46.371628,45.123161 43.029621,42.189060 39.707462,41.589237 
	C37.451839,41.181980 33.964195,42.751999 32.362183,44.596790 
	C29.190456,48.249168 31.682121,51.477406 35.228638,54.748459 
z"/>
<path fill="#F6F6F6" opacity="1.000000" stroke="none" 
	d="
M67.148605,49.029518 
	C67.148605,45.235458 67.148605,41.936546 67.148605,38.395191 
	C80.383240,38.395191 93.303398,38.395191 106.538193,38.395191 
	C106.538193,51.371258 106.538193,64.412453 106.538193,77.653580 
	C103.855194,77.653580 101.256020,77.653580 97.985863,77.653580 
	C97.985863,73.063065 98.011269,68.468338 97.979500,63.874001 
	C97.938759,57.981995 95.960197,56.105637 89.959335,56.006016 
	C75.446541,55.765091 74.581970,55.579853 75.006012,70.948433 
	C75.064842,73.080650 75.014130,75.215881 75.014130,77.598312 
	C72.378410,77.598312 70.107422,77.598312 67.148605,77.598312 
	C67.148605,68.360603 67.148605,58.942635 67.148605,49.029518 
M85.711060,54.980907 
	C87.401634,54.541611 89.301941,54.453674 90.741753,53.594269 
	C94.419212,51.399227 95.377174,47.355412 92.450600,45.195759 
	C90.221725,43.550968 86.862312,42.196705 84.318687,42.615078 
	C82.305496,42.946205 79.799301,45.919640 79.230339,48.156738 
	C78.209373,52.171032 82.181892,53.331635 85.711060,54.980907 
z"/>
<path fill="#000000" opacity="1.000000" stroke="none" 
	d="
M138.039520,53.450394 
	C136.939926,53.830879 136.117599,53.971653 135.294098,53.978931 
	C130.093979,54.024906 125.853355,50.967621 126.021988,47.325401 
	C126.198174,43.519760 131.326294,39.905113 136.088242,41.212658 
	C138.676514,41.923351 141.686371,44.245525 142.740112,46.623417 
	C144.144363,49.792248 141.238327,51.899483 138.039520,53.450394 
z"/>
<path fill="#000000" opacity="1.000000" stroke="none" 
	d="
M34.968075,54.442631 
	C31.682121,51.477406 29.190456,48.249168 32.362183,44.596790 
	C33.964195,42.751999 37.451839,41.181980 39.707462,41.589237 
	C43.029621,42.189060 46.371628,45.123161 44.758179,49.027328 
	C43.736370,51.499878 40.530483,53.146893 38.121048,54.914597 
	C37.520687,55.355057 36.211845,54.829830 34.968075,54.442631 
z"/>
<path fill="#000000" opacity="1.000000" stroke="none" 
	d="
M85.311218,54.970291 
	C82.181892,53.331635 78.209373,52.171032 79.230339,48.156738 
	C79.799301,45.919640 82.305496,42.946205 84.318687,42.615078 
	C86.862312,42.196705 90.221725,43.550968 92.450600,45.195759 
	C95.377174,47.355412 94.419212,51.399227 90.741753,53.594269 
	C89.301941,54.453674 87.401634,54.541611 85.311218,54.970291 
z"/>
</svg>