<?xml version="1.0" encoding="utf-8"?>
<!-- Generator: Adobe Illustrator 24.1.2, SVG Export Plug-In . SVG Version: 6.00 Build 0)  -->
<svg version="1.1"
	 id="svg2206" inkscape:export-xdpi="90" inkscape:export-ydpi="90" inkscape:output_extension="org.inkscape.output.svg.inkscape" inkscape:version="0.45.1" sodipodi:docname="NPS3.svg" sodipodi:version="0.32" xmlns:cc="http://web.resource.org/cc/" xmlns:dc="http://purl.org/dc/elements/1.1/" xmlns:inkscape="http://www.inkscape.org/namespaces/inkscape" xmlns:rdf="http://www.w3.org/1999/02/22-rdf-syntax-ns#" xmlns:sodipodi="http://sodipodi.sourceforge.net/DTD/sodipodi-0.dtd" xmlns:svg="http://www.w3.org/2000/svg"
	 xmlns="http://www.w3.org/2000/svg" xmlns:xlink="http://www.w3.org/1999/xlink" x="0px" y="0px" viewBox="0 0 553 720"
	 style="enable-background:new 0 0 553 720;" xml:space="preserve">
<style type="text/css">
	.st0{fill:#FFFFFF;fill-opacity:0.9608;stroke:#99542C;stroke-width:10.2385;stroke-miterlimit:10.433;}
	.st1{fill:#FFFFFF;}
	.st2{fill:#C56C39;}
	.st3{fill:#99542C;}
	.st4{fill:#2D4B1E;}
	.st5{fill:none;stroke:#FFFFFF;stroke-width:0.5534;stroke-miterlimit:171.6869;}
	.st6{fill:none;stroke:#FFFFFF;stroke-width:0.553;stroke-miterlimit:10.433;}
	.st7{fill:none;stroke:#FFFFFF;stroke-width:0.5535;stroke-miterlimit:10.433;}
</style>
<g id="nps_logo" inkscape:groupmode="layer" inkscape:label="Layer 1">
	<path id="path6716" class="st0" d="M493.5,420.3l0.2-0.5l0.2-0.3l0.2-0.5v-0.5l0.2-0.5l0.2-0.5l0.2-0.3l0.2-0.5l0.2-0.5l0.2-0.5
		l0.3-0.5l0.2-0.3l0.2-0.5l0.2-0.2v-0.2l0.2-0.2l0.2-0.3v-0.2l0.2-0.2c2.8-3.9,5.4-8.6,9.1-10.7c3.3-2.3,3.9-6.4,5.6-13.2
		c0.5-11.8,2.1-12.5,2.6-13.8c0.5-1.3,1.3-5.3,4.1-10.2c2-3.6,4.4-10.9,3.6-13c-1.8-3.6-3.3-6.7-5.1-13c-2.5-14.8-0.5-19.7,2.6-24.4
		c4.4-6.7,7.2-10.9,11.8-13.2c2.1-1,1.8-5.1,1.5-7.9c-1.2-7.2,1-6.6,2.1-10.4c1.3-3.8,2.3-8.9,2.3-10c0-1.3-0.7-4.8-1-6.4
		c-0.5-3-1-7.2-0.2-8.9c1.3-2.3,2.6-4.9,2.5-7.2c0-1,1.2-2.5,1.6-4.1c0.5-1.5,1.5-5.1,1.5-7.9c0-0.8,1-6.6,1.6-10.7
		c1.5-8.1,0.5-12-0.2-14.3c-0.7-3.3-2.6-4.9-2.5-6.1c0-1.5-0.3-6.1-0.7-8.9c-0.2-1.6,6.6-11,7.9-12.8c0.5-1-0.5-7.4-0.5-8.9
		c0-1.3-1.6-8.1-1.6-9.9c0-2,0.3-3.1,0.3-4.9c-0.2-2-0.3-4.8-0.5-8.4c-0.3-6.6,0.2-13.3,0.3-15.1c0-1.5-2.5-1.5-6.9-3.8
		c-4.4-2.3-14-11.8-15.6-12.5c-1.6-0.8-9.4-2.1-13.7-2.1c-3.9,0-12.7,2-16.6,2.6c-3.8,0.5-8.6-1.2-10.9-1.8
		c-2.3-0.7-6.4-1.8-8.2-1.5c-5.3,0.5-13.8,0.7-17.4,0c-4.3-0.8-7.9-2-10-3.3c-1.8-1.3-2.5-0.8-4.8-3c-1.8-1.6-2-2.6-3.5-2.8
		c-1.3-0.3-13.8-1.3-16.1-3.6c-2.3-2.3-5.4-6.3-7.2-15c-1.8-8.4,1.2-14.3,4.3-16c4.9-2.5,11.7-6.6,15.3-6.9c1.6-0.2-2-6.6-3.8-12.7
		c-0.8-2.3-4.3-1.8-12.2-10.5c-3.5-3.9-9.7-11.7-11.2-14.3c-1.6-2.6,0.2-4.1-1.5-4.3c-2.1-0.2-9.2,0.2-20.4-1.8
		c-11.2-2.1-18.4-5.3-21.9-6.3c-3.3-1-11.2-3.8-13.7-4.6c-2.5-0.8-7.4-2.8-11.8-4.4c-4.3-1.5-6.3-4.9-8.4-5.1
		c-2.3,0-10.5,5.8-20.4,7.1c-9.9,1.3-13.3-1-18.6-1.8c-5.6-0.8-10.7-1.8-17.3-2.3c-6.4-0.5-25.5,3-28.8,3.5c-3.3,0.3-7.9,2.6-12,2.6
		c-2.6,0-17.3,4.3-19.7,4.8c-2.6,0.5-6.3-0.8-8.1-0.2c-3,0.8-7.2,1.8-8.7,2.1c-1.2,0.3-20.4,6.7-23.9,7.4c-3.8,0.8-9.2,2.6-13.7,4.3
		c-3,1.3-4.8,3.3-7.2,4.9c-8.2,5.8-10.5,5.9-14.5,7.2c-2.6,0.8-3.9,1.8-9.5,2.1c-5.8,0.3-7.4,1.5-7.4,2.3c0,3.9-1.3,11.8,0.2,12.5
		c3.1,1.6,10.9,14.3,11.2,22.4c0.5,8.6-0.7,14.6-1,17.3c-0.3,2.3-0.7,3.6-1.8,4.9c-1,1.3-7.9,3.5-12,3.9c-4.3,0.2-6.4,0.3-21.4-3.6
		c-11.7-3-12.7-4.1-14.2-5.8c-1.2-1.8-4.1-3.3-6.1-4.3c-2.1-1-4.3-1.5-6.4-3.5c-2-1.8-11,2.6-23.5,3.6c-2.3,0.2-6.6,7.7-14.3,11.7
		c-6.1,3-8.9,4.1-10.9,5.6c-5.6,3.8-12.2,4.4-11.4,6.1c1.3,3.1-1.2,4.8-0.3,12.5c1.2,13-1.8,19.6-1.8,25.8c-0.2,3.1,3.5,6.9,5.1,8.2
		c1.5,1.3,4.4,5.8,5.3,9.1c0.7,3.3-0.5,14-2.1,22.9c-1.6,9.1-2.6,18.3-2.3,21.6c0.2,2.1,2.8,6.6,3.9,9.1c1.6,3,4.8,13.7,4.9,19.1
		c0.2,4.9-1.2,11.2-1.2,12.2c0,1,1.6,5.1,3.3,7.2c1.8,2.6,5.9,11.4,6.9,13.5c1.5,3,2,6.7,2,6.7s-0.5,4.3-0.7,6.9
		c-0.2,2.6-1.2,11.7-2.1,23.4c-0.8,11.4-0.8,20.9,0.2,21.9c1.3,1.3,3.8,3.5,4.8,4.9c0.8,1.6,8.1,14.2,8.9,16c0.8,2,2.6,6.9,3.3,10.4
		c0.7,3.6,1.6,10.7,2,12.5c0.5,2.5,3.5,17.6,3.9,20.1c0.7,3.1,1.8,11.7,2.3,15.1c0.3,3.9,0.7,10.4,1,11.7c0.3,1.2,1.3,3.5,2.5,6.1
		c1.3,3,3.6,11.7,4.1,13.7c0.5,2-0.3,4.6,0.2,6.3c0.7,1.8,2.6,3.3,3.3,4.8c0.7,1.5,5.9,12,8.2,15.6c2.1,3.1,9.7,17.6,11.8,22.4
		c0.5,0.7,0.5,1.2,0.5,1.5c0,1.8,0.3,3.3,1.3,3.9c1,0.7,2.6,4.1,3.9,4.3c1.8,0.3,3.6,1.3,4.4,2.3c0.8,1.3,7.4,7.7,9.9,10.4
		c2.5,2.6,4.1,4.3,3.8,6.6c-0.3,1.8-0.2,4.8,0.8,5.8c1.8,1.8,4.6,3.3,9.9,10.2c4.4,5.9,6.1,10.9,8.4,15c1.3,2.5,3.3,9.4,3.3,11.2
		s1.2,3.1,2.1,4.1c1.2,1.5,4.1,3.9,6.3,4.9c1.2,0.5,4.4,3.5,7.4,6.9c3,3.3,5.4,6.1,6.7,13.8c0.5,2.3,0.5,4.3,1.3,4.4
		c0.8,0.2,2.8,0.7,3.3,1.6c0.7,0.8,0.7,2.1,2,3c3.8,2.6,4.3,5.3,4.8,7.1c0.2,1.6,1,6.4,1.5,8.4c0.2,1.5,7.9,9.7,9.9,12.7
		c1.6,2.6,4.1,3.1,9.7,6.3c5.4,3,5.8,4.9,6.1,6.4c0.3,1.6,0.2,9.4,0.7,10.2c1.3,1.8,2.1,1,4.3,3.6c2.1,2.6,4.9,6.4,6.3,8.2
		c1.3,1.8,12.5,8.7,18.6,14.3c1.5,1.5,5.1,5.3,7.6,7.1c1.8,1.2,4.3,2.3,6.3,3.3c2.1,1,5.3,2,11.5,6.4c1.5,0.8,5.1,2.6,7.2,3.9
		c2.6,1.6,10,5.8,12.8,5.8c5.8,0,8.7,2.3,12,1.5c13.8-2.6,16.9-4.6,20.1-7.6c2.8-3,7.6-9.5,9.1-10.7c1.6-1.5,6.4-7.1,10.4-9.7
		c10.9-10.5,9.7-8.4,16.5-12.8c3.6-2.5,6.9-3.3,9.1-6.4c3.3-5.4,8.4-13,9.2-16.3c0.7-2,1.8-2.5,2.6-4.6c0.7-1.8,0.3-3.3,2.6-4.3
		c1.8-0.8,6.1-5.8,8.4-6.9c1.5-0.8,0.3-5.3,2.1-7.2c1.2-1.5,6.6-5.1,11.4-8.6c9.1-6.4,15.5-15.1,18.9-18.4c3.6-3.8,1.8-9.2,0.7-10.9
		l2.6-3.9c0,0,4.8-5.3,7.6-8.2c2.8-2.6,10.4-12.2,12.3-14.2c1.6-1.5,0.7-9.7,1-12c0.2-2.5,5.6-6.6,7.4-8.4c1.8-1.8,2.6-3.5,2.8-6.9
		c0.3-3.3,2.6-17.9,3.5-20.6c0.5-1.3,1-2.3,1.6-3.3c1.5-2.3,3.1-3.9,4.6-5.6c1.8-2.1,10.9-13,15.1-16.8l0.8-0.5
		c2.1-1.5,0.8-3.1,0.8-5.1c0-1,0.8-3,2.1-5.1c1.2-2.3,2.8-5.1,4.1-6.4c3.8-4.3,3.1-6.7,9.4-11.4c2.3-1.6,1.5-6.6,1.5-6.6
		s-0.2-1.8,1.2-4.8s5.9-8.6,8.7-11.5c1.2-1.2,2.1-4.8,2.1-6.6c0-1.6-0.3-4.9,1.5-8.4c0.3-0.7,0.7-1.3,1.2-2
		C492.8,421.8,493.1,421,493.5,420.3z"/>
	<path id="path6642" class="st1" d="M111,424.1l0.2-0.7c-0.2-1.3-2.3-1.3-2.6-2.1c-0.8-2.8-2.1-3.3-2.8-3.9c-1.6-1.5-3.3-0.7-4.1-1
		c-0.8-0.3-2-0.7-1.5-2.8c0-0.3-0.2-0.5-0.3-0.3l-1.2,0.2l-1.3-0.2l-1.2,0.2c0,0-2.8,0-7.2,1.5c-1,0-2.3,1.2-3.9,1.2
		c-1.6-0.2-3.5,1.6-5.3,1.6c-1.3,0.2-4.8,4.6-7.6,5.1c-1.6,0.2,0,0.3-9.4,3.8c-5.3,1.8-3.8,1.5-8.2,3.9c1,0.3,5.1,0.2,8.6-0.2
		c6.1-0.5,6.3-0.5,7.6-0.8c6.1-0.8,15.6-1.3,19.4-2.1c2.8-0.7,4.8,1,7.4,0.2c1.2-0.5,3-0.5,3.8-0.5c1.3-0.2,1.6,0,2.5-0.2
		c0,0,4.1,0.2,4.9-0.5c1.3-0.7,1.8-1,2-1.5L111,424.1z"/>
	<path id="path6644" class="st2" d="M492.6,422.1V422l0,0l0,0v-0.2h0.2v-0.2v-0.2l0.2-0.2l0,0v-0.2V421l0.2-0.2v-0.2v-0.2l0.2-0.2
		l0.2-0.2V420c0.8-2.3,1.5-5.3,2.8-7.1c3-3.9,5.4-8.4,9.1-10.7c3.3-2.3,3.9-6.4,5.6-13.2c0.5-11.8,2.1-12.5,2.8-13.8
		c0.5-1.3,1.3-5.3,3.9-10.2c2-3.6,4.4-11,3.6-13c-1.8-3.6-3.3-6.7-5.1-13c-2.5-14.8-0.5-19.7,2.6-24.4c4.4-6.7,7.2-11,11.8-13.2
		c2.1-1,1.8-5.1,1.5-7.9c-1.2-7.2,1-6.6,2.3-10.4c1.2-3.8,2.1-8.7,2.1-10.2c0-1.3-0.7-4.4-1-6.3c-0.5-3-0.8-7.4-0.2-8.9
		c1.5-2.3,2.6-5.1,2.6-7.2c0-1,1-2.5,1.5-3.9c0.5-1.6,1.5-5.3,1.5-8.1c0-0.8,1.2-6.6,1.8-10.7c1.3-8.1,0.5-12-0.2-14.3
		c-0.8-3.5-2.6-4.9-2.6-6.1c0-1.5-0.3-6.1-0.7-8.9c-0.2-1.6,6.7-11,7.9-13c0.7-0.8-0.5-7.2-0.5-8.7c0-1.3-1.6-8.2-1.6-10
		c0-1.8,0.3-3,0.3-4.8c0-2-0.3-4.8-0.3-8.4c-0.3-6.6,0.2-13.3,0.2-15.1c0-1.5-2.5-1.5-6.9-3.8s-14-11.7-15.6-12.5
		c-1.6-0.7-9.4-2.1-13.5-2.1c-4.1,0-12.8,2-16.6,2.6c-3.9,0.5-8.7-1.2-10.9-1.8c-2.5-0.7-6.6-1.8-8.4-1.6
		c-5.3,0.7-13.8,0.8-17.3,0.2c-4.4-0.8-8.1-2-10.2-3.3c-1.8-1.3-2.5-0.8-4.6-2.8c-2-1.8-2.1-2.8-3.6-3c-1.3-0.3-13.8-1.3-16.1-3.6
		c-2.3-2.3-5.4-6.3-7.2-15c-1.8-8.2,1.2-14.3,4.3-16c4.9-2.5,11.7-6.6,15.3-6.9c1.6-0.2-2-6.4-3.8-12.7c-0.8-2.3-4.3-1.8-12.2-10.5
		c-3.5-3.9-9.5-11.7-11.2-14.3c-1.6-2.6,0.2-4.1-1.5-4.3c-2.1-0.2-9.2,0.2-20.4-2c-11-2-18.4-4.9-21.9-6.1c-3.3-1-11.2-3.6-13.7-4.6
		c-2.5-0.8-7.4-3-11.8-4.4c-4.3-1.6-6.3-4.9-8.4-5.1c-2.3,0-10.5,5.8-20.4,7.1c-9.9,1.3-13.2-1-18.6-1.8c-5.6-0.7-10.7-1.8-17.1-2.3
		c-6.6-0.5-25.5,3-28.8,3.5c-3.3,0.3-8.1,2.6-12.2,2.6c-2.6,0-17.3,4.3-19.7,4.8c-2.6,0.5-6.3-0.8-8.1-0.2c-2.8,0.8-7.2,1.8-8.6,2.1
		c-1.3,0.2-20.6,6.7-23.9,7.4c-3.9,0.8-9.4,2.6-13.8,4.3c-3,1.2-4.8,3.3-7.2,4.9c-8.2,5.8-10.5,6.1-14.5,7.2c-2.5,0.7-3.9,1.8-9.5,2
		c-5.8,0.3-7.4,1.5-7.2,2.6c-0.2,3.8-1.3,11.5,0,12.3c3.1,1.6,10.9,14.3,11.4,22.4c0.3,8.6-0.7,14.6-1.2,17.3
		c-0.3,2.1-0.7,3.6-1.6,4.9c-1.2,1.3-8.1,3.6-12.2,3.8c-4.3,0.3-6.4,0.5-21.4-3.3c-11.5-3.1-12.7-4.3-14-6.1
		c-1.3-1.6-4.3-3.1-6.3-4.1c-2.1-1-4.3-1.5-6.3-3.6c-2-1.6-11.2,2.8-23.7,3.8c-2.3,0.2-6.6,7.7-14.2,11.7c-6.1,3-9.1,4.1-11,5.6
		c-5.6,3.8-12,4.4-11.4,6.1c1.3,3.1-1.2,4.8-0.3,12.5c1.2,12.8-1.8,19.6-1.8,25.8c0,3.1,3.5,6.9,5.1,8.2c1.6,1.3,4.4,5.9,5.3,9.1
		c0.8,3.3-0.5,14-2.1,22.7c-1.6,9.4-2.6,18.4-2.3,21.7c0.2,2.3,2.8,6.6,4.1,9.1c1.5,3,4.6,13.5,4.8,19.1c0.3,5.1-1.2,11.2-1.2,12.2
		c0,1.2,1.8,5.1,3.3,7.2c1.8,2.5,5.9,11.4,7.1,13.5c1.5,3,1.8,6.6,1.8,6.6s-0.3,4.4-0.7,7.1c-0.2,2.6-1.2,11.8-2,23.4
		c-1,11.4-1,20.9,0.2,21.9c1.2,1.3,3.6,3.5,4.6,5.1c0.8,1.5,8.1,14,8.9,16c0.8,1.8,2.6,6.6,3.3,10.2c0.7,3.6,1.6,10.7,2.1,12.5
		c0.3,2.3,3.3,17.6,3.8,20.1c0.8,3.1,2,11.8,2.3,15.1c0.3,3.9,0.7,10.4,1,11.5h-0.2c4.3-2.5,3-2.1,8.2-3.9c9.4-3.5,7.7-3.6,9.4-3.8
		c2.8-0.5,6.3-4.9,7.6-5.1c1.6,0,3.6-1.8,5.1-1.8c1.6,0.2,3.1-1,3.9-1c4.6-1.5,7.2-1.5,7.2-1.5l7.6-1.5c3.1-0.5,79-27.5,93.1-33.1
		c14-5.6,1.2,4.1,19.6-2.6c18.3-6.7,30-13,30-13c4.6-1.5,27.3-13.2,27.3-13.2s5.1-2.6,9.4-2.3c5.3,0.3,9.1-0.2,10.7-0.3
		c1.5-0.3,2.6-0.8,7.1-0.7c4.6,0.2,6.4,0.8,10.2,0.2c3.5-0.5,3.9-3.1,5.6-3.6c1.5-0.3,3.5-1.5,4.3-2.5c2.1-2.8,4.4-2,5.4-3.8
		c1.8-3,4.1-2,9.1-5.9c1-0.8,5.9,0.3,7.6-0.7c1.8-0.8,8.9-6.4,10.4-7.2c1.6-1.2,2.6-3.3,4.6-3c4.3,1,4.9-0.3,7.1,1.6
		c3.1,3,10.2,7.9,10.5,8.6c1.3,3.5,6.6,3.6,6.7,8.2c0.2,2.5,2.5,2.1,2.1,5.9c-0.2,1,6.9-0.3,9.9,2.3c2,1.6,9.5,8.9,10.7,9.4
		c2,1.2,5.4,4.1,6.9,4.8c3.1,1.3,15.3,8.2,18.9,13c1.6,2.1,4.6,1.6,6.4,3c4.8,3.3,17.3,11,18.9,14c1.5,2.6,12.8,10.5,13.3,12.3
		c0.3,2.1,5.6,4.6,5.9,6.4c0.2,1.8,7.2,6.6,9.9,8.6c3.5,2.5,2.5,1.6,6.1,5.4L492.6,422.1z"/>
	<path id="path6646" class="st3" d="M462.8,479.7l0.2-0.3l0.2-0.5l0.3-0.5l0.2-0.3l0.3-0.5l0.2-0.5l0.3-0.3l0.3-0.5l0.2-0.5l0.3-0.3
		l0.3-0.3l0.2-0.5l0.3-0.3v-0.2l0.2-0.2l0.2-0.2l0.2-0.2v-0.2l0.2-0.2c3.9-4.1,3.3-6.6,9.5-11.2c2.3-1.6,1.3-6.7,1.3-6.7
		s0-1.6,1.3-4.6c1.2-3,5.9-8.6,8.7-11.5c1-1.2,2-4.9,2-6.7c0-1.5-0.2-4.8,1.6-8.4v-0.5c-3.6-3.8-2.5-2.6-5.9-5.1
		c-2.5-2-9.7-6.9-9.9-8.6c-0.2-1.8-5.4-4.3-5.9-6.6c-0.5-1.6-11.8-9.5-13.3-12.2c-1.5-3.1-14.2-10.7-18.9-14.2
		c-1.8-1.3-4.8-0.7-6.4-2.8c-3.6-4.8-15.8-11.7-18.9-13.2c-1.3-0.5-4.8-3.5-6.9-4.6c-1.2-0.7-8.7-7.7-10.7-9.5
		c-3-2.5-9.9-1.2-9.9-2.3c0.3-3.6-2-3.3-2-5.8c-0.2-4.6-5.6-4.8-6.9-8.2c-0.3-0.7-7.4-5.8-10.4-8.6c-2.3-2-3-0.7-7.2-1.6
		c-2-0.3-3,1.8-4.4,2.8c-1.6,1-8.7,6.6-10.4,7.4c-1.8,0.8-6.7-0.2-7.7,0.5c-4.9,4.1-7.2,3.1-8.9,5.9c-1.2,2-3.5,1.2-5.6,3.9
		c-0.7,0.8-2.8,2.1-4.1,2.5c-1.6,0.5-2.3,3-5.6,3.5c-3.9,0.7-5.8,0.2-10.2,0c-4.6-0.2-5.8,0.3-7.2,0.7c-1.6,0.2-5.3,0.5-10.5,0.2
		c-4.4-0.2-9.5,2.3-9.5,2.3s-22.5,11.7-27.3,13.3l-2.1,1c-0.2,1.5-1.6,4.8-3.1,5.6c-1.3,0.8-3,0.3-3.8,1.5c-0.7,1.3,1,2.1,1.5,2.8
		c0.3,0.7,1.2,3-0.2,3.9c-1.6,1.2-2.3,3-3.1,3.9c-0.8,1.2-4.1,2.8-3.3,4.4c0.7,1.5,1.3,2.6,1.5,4.1c0.5,3-1,4.4-1.2,5.6
		c-0.2,1.3,1.3,1.2,0.2,3c-1.5,2.1-2.8,2.8-2,4.3c0.7,1.5-2.5,0.8-3.1,1c-0.8,0.3-1.5,1.2-1.8,2.6c-0.2,1.3,0.3,3.6-2.3,3.6
		c-2.6,0-6.4,0-7.2,0.8c-1,0.8,0.7,2.3-0.5,3c-1.3,1-2,0-3,0c-1.2,0-2.5,1.3-2.5,1.3s-0.8,1.3-1.2,2.1c-0.5,0.8-2,1.3-2.1,2.3
		c-0.2,0.8,0.8,1.3-0.2,2.6c-0.5,1-1.6,1.5-2.8,2.1c-1.2,0.7-1.6-0.5-2.3,1.2c-0.5,1.3-0.2,1.8-0.8,2.6c-1,1.2-3,1.5-4.1,2.1
		c-4.6,1.6-9.9,2.5-10.9,2.5c-1,0-7.1-0.2-7.1-2.1c-0.3-3.6-3.3-3.9-3.6-5.1c-1-2.6-4.4-3.8-4.4-5.6c-0.2-2.5-9.1-1.6-9.4,0
		c-0.2,1.5,0,9.5,0,11.5c-0.2,3.1,0,6.9,0.7,23c0.3,10.7-0.2,12.8,1.2,23.7c0.8,6.4,2.1,9.5,3.1,11.2l2.5-0.7c-0.3,0,3.6-0.8,2-2.5
		c2.3-0.2,2.5-2.3-1.5-2.5c2.8-0.7,2.6-2.1,1-2.5c2.3-0.7,3.3-1.5,2.3-2.8c2,0.3,1.3-1.5,0.8-2.1c1.5,0.3,2.5-0.3,2.1-1.3
		c2.3,1.6,4.1-0.2,1.3-1.3c2-0.2,1.3-1-1.6-1.5c1.2,0.3,3.3-0.7,2.6-1.6c1.5,1.2,3.5-0.7,1-2.6c1.6-0.5,2.3-3.1,2.3-3.6
		c0.2,1.6-0.5,4.8,1.3,4.3c-1,1-0.8,2,2.5,2c-3,0.5-3.8,2.6,0,3c-1.5,1.2,2.3,0.8,3.9,1.5c-2.5,0.3-2.8,1-1.8,1.5
		c-2.5,0.8,0.3,1.8,4.1,2.3c-3.6,0.2-4.4,2.5-2.8,3.5c0.8,0.7,2.1,0.3,3.3,0.2c1-0.5,1.5-0.8,2.6-1.3c1-0.3,1.6-1.3-1.5-2.3
		c1.5,0.3,3.9,0.2,3.1-0.5c3.6-0.5,3.5-2.3-1.6-3.9c1.5,0.5,7.1-0.3,4.3-1.8c1.3-0.3,0.2-2.6-1.6-2.5c1.2-0.5,1.5-2.5-0.7-3.1
		c2.1,0,4.3-0.3,2.3-1.5c1.3,0.2,2.3-0.5,1.8-1.3c2.8,0.5,2.1-1.2,0.8-1.8c0.7-0.3,2.8-1,0.5-2.5c1.8,0.2,3.8-0.2,3.5-1
		c2.1-0.2,3.6-2.5-0.2-2.1c0.5-0.5,1-1.5-0.3-2.1c2.8,0,3.9-3.6,3-4.6c1.5,0.2,1.2-4.1,1-5.4c1,2.5,1.5,3.9,2.6,3.9
		c-1.5,1,0.2,2.6,1.8,3.1c-1.5,0.7,1.2,2.5,2.5,2.1c-2.3,1.2-2.5,3.8,3,5.4c-2.3-0.3-1,2,0,2.6c-0.8-0.7-3.8-0.7-3,0.7
		c-1.2,0.3-1.8,2.5,1.6,1.5c-0.3,0.8,1.5,1.6,3.9,2c-1.5,1.5-0.8,2.1,1.2,2.5c-0.8,0.5-1.8,1.2-0.3,2.1c-1.3,1-3,3.1,3,3.3
		c-2.6,1-0.3,1.6,1.2,2.5c-4.9-0.2-3.5,3.8,0.2,3.9c-2,0.7-0.8,2.5,1.5,3.3c-1.3,1.2,3.3,1.6,2-0.7c2.8-0.3,4.1-2.1,2.1-2.6
		c3.6-1,1.3-5.3,0.2-5.1c1.6-0.3,3.8-1.6,2.1-2.8c2.5,0.5,5.3-1.8-1.2-2.3c5.1-0.7,3.8-2.8,1.5-3.6c0.7-0.2,6.7,0.5,4.3-2
		c1.6-0.5-0.2-1.5-2.1-1.5c1.5-0.3,3.6-2,1.6-3c0.8,0.2,1.8-0.2,1-2c0.8,0.7,4.6,0.8,3.6-1.2c1.3-0.5,0.2-1.5-0.7-2.3
		c2.1-0.8,0.8-3.8,0-4.4c11.2-0.5,1-4.3,0.2-4.6c2.5,0,5.1-0.7,3.8-2c5.6,1.2,2.5-3.5,0.8-4.3c0.7,0,2.8-1.3,1.5-2.6
		c2.6,1.3,4.4,0.8,1.8-2c1.2-0.3,0.5-1.8-0.5-2c2.5,0.3,2.5-5.1,2.5-5.1s1.6,4.9,4.1,5.3c-2.3,0.8-1.8,4.6-0.2,4.8
		c-0.5,1.6,2.3,1.5,3.8,1.8c-4.3,0-3.5,2.5,0.2,3.1c-1.8,1,0,2.3,2.5,1.8c-2.3,0.8-2.1,2.5,0.7,4.1c-1.2,0.7-2.1,2-1,3.3
		c-1.8,0,0,2.5,3.5,3.1c-4.4,0.2-5.4,1.5,0,3.5c-0.8,0.2-0.5,1.5,1.5,2.1c-3,1.3-2.8,3.8,2.5,3.9c-2,0.7-0.2,1.3,1.5,2.5
		c-9.4,0.7-4.3,4.6-0.7,3.9c-3.3,1.5,1.8,1.2,3.8,2.1c-3.3,0.3-7.1,0.8-5.6,1.8c-1.8,0.3-2,2.8,5.6,2.8c-1.3,0.7,1.2,3.1,2.3,3.8
		c-8.7,1.2-4.6,2.5-0.2,3.5c-1.3,0.3-2.5,2.6,2.3,2.3c-2.8,0.7-5.4,2-3.1,3.5c2.3,1.3,2,1.6,29.1,4.1c21.4,2,25,2.5,30,3.1
		c5.8,0.8,1.5-2.8-0.3-4.3c8.7,1.5,4.3-2.8,3.1-3.8c1.2,0,3.8-0.7,1.8-2c4.6,0.7,3.1-2.5,2.3-3.5c6.1-1.5,3-3.1,0.8-4.3
		c1.2-0.3,2.1-0.8,1.3-2c3.9,1.5,2.8-0.5,1.3-1.5c1.6,0.2,3.9-2.5,1.5-3.6c2.6-0.7,1.8-1.6,1.2-2c6.6-0.3-1-3.5,1-2.6
		c2.8-0.8,4.9-4.1,2.5-4.9c2.3-0.3,3.9-2.3,1.6-3.5c1.5-0.7,1.5-2.6,0.8-3.8c4.3,0.7,3-3,1.8-3.3c3.1,0.5,3.5-6.7,3.5-6.7
		s0.3,4.8,3.3,5.1c-1.8,1,1.6,3.1,3.1,3.6c-2.8,0-3.1,1.8-1.8,2.5c-2.5,0.2,0.2,3.1,2.1,3.8c-4.1,0.7-0.7,2.3,0.3,3.1
		c-2,0.3-1.8,1.8,0.3,2.3c-2.1,1-0.3,3.3,0.7,3.6c1.2,0.3,2.3,0,3.5-0.8c1.6-1.8-0.5-3.1-1.5-3.6c3.9-0.7,3.8-3.8,2.3-4.4
		c3.1-0.2,2.3-3.6,1.2-4.4c2.3,0.2,2.5-3,2.6-4.8c0.7,2.5,0.5,4.4,2.1,5.1c-2,2.6,0.3,4.6,1.8,4.4c-1.2,0.7,0.2,2.6,1.6,3.1
		c-3.9,1,0.8,3.9,1.8,3.9c-2.1,2.1,1.5,3.8,1.5,3.8s-2,2.1-1.5,4.3c0.5,2.1,3.8,1.6,4.8,0.8c2-1.6-0.3-3.9-1.2-4.4
		c3.5-0.2,2.6-3.9,1-4.4c3.3,0,7.6-1.2,2.8-2.3c-0.7,0,3.8-1.8,0.8-2.5c4.1,0.2,1.3-3.8,1.3-3.8s4.4-0.5,2.1-2.3
		c2.5,0.5,2.8-1.8,2.8-1.8s-0.5,3,3.1,3.9c-2.3,1.2,0.7,1.3,1.2,1.6c-3.8,1.2-0.8,2.6,1,3.1c-2.1,0.5-1.8,2.1-0.2,3
		c-1.8,0.5,0.2,1.8,1.8,2.1c-2.6,2.1-1.5,4.3,0.7,4.6c-2.5,3.8,1.5,3.3,2.5,2.5c1-0.5,1.5-1.5,1.2-2.1c-0.3-0.7-1-0.7-1.8-1
		c3.6-1,1.8-3.1,0.7-3.8c4.8-0.5,3.5-3.5,2.5-4.1c1.3-0.2,2.6-0.7,1.8-1.6c1.2-0.2,0.7-1.3,1.2-3c0.2,2.1,0.7,3.8,1.6,4.1
		c-0.8,0.8,0.3,1.5,0.8,1.8c-3.1-0.7-0.7,2,0.3,2.1c-1.3,1.3-0.2,1.8,0.8,1.8c-1,1-0.3,1.3,0.8,1.6c-1.3,1,0.3,3.1,2.6,2.3
		c3.5-1.2,0-3.3,0-3.3c2,0,3.5-0.8,2.5-1.6c3.6,1,5.8-2.1,2.8-3.6c1.2-0.3,2.5-3-0.5-3.8c3.5,0.7,5.8-0.3,3.8-3c2,0.2,1.8-1.6,2-2.8
		c0.5,2.3,1.3,2.5,2.1,2.5c-1.3,1.5-0.2,2.1,0.7,2.6c-0.3,0.8,0.5,2,2,1.8c-0.8,0.7,0.2,1.5,1.2,1.6c-4.1,0.3-3,2.5-1.2,2.5
		c-0.3,1.3,0,1.8,2.3,1.5c-1.5,1.8,1.2,2.1,2.1,2.1c-3.5,0-3,3.9-0.7,3.1c-0.2,2.1,3.3,0.7,4.4,1.2c-2.5,2.3-1.8,4.1,3.3,3.1
		c-2.5,3.5,2,2.5,2.3,1.3c3.1,2.1,4.1-1,2.1-2c1.5-0.2,1-1.3-1.2-2c2.8,0,2.1-0.8,1.6-1.6c2.1,0.7,3-0.5,2.1-1.8
		c2.3,0.3,2.3-2.3,2.3-2.3s0.3,1.6,2,1.3c-0.8,1.8,0.7,2.3,2.8,1.8c-0.8,1.8,0.2,2.5,1.6,2.6c-0.2,0.7,0,1.8,1,2.3L462.8,479.7z"/>
	<path id="path6662" class="st1" d="M298.5,354.6l-0.5-0.2l-0.3,0.2h-0.3H297h-0.3h-0.3l-0.7,0.2L295,355l-0.7,0.2l-0.7,0.2
		l-0.7,0.2l-0.8,0.3l-0.7,0.3l-0.3,0.2l-0.3,0.2l-0.3,0.2l-0.5,0.2l-0.3,0.2l-0.5,0.2l-0.3,0.2l-0.5,0.3l-0.3,0.2l-0.5,0.2l-0.5,0.3
		l-0.3,0.2c-2.3,1.2-16.9,11.7-23.9,14.5c-5.1,2.1-6.9,7.6-6.9,8.7c0.2,2,5.6,0.3,10.5-0.8c6.1-1.8,6.4-2.6,6.7-4.1
		c0.2-1,3.8-3,6.9-6.3c2.5-2.6-0.5-3.3,1.8-4.6c2.5-1.6,7.4-6.9,9.5-7.6C293.7,357.4,299.3,354.6,298.5,354.6z M434.7,389.7v0.2h0.2
		v0.2h0.2v0.2l0.2,0.2l0.2,0.2v0.2l0.2,0.2l0.2,0.2l0.2,0.2l0.2,0.2l0.2,0.2l0.2,0.2l0.3,0.3l0.3,0.3l0.3,0.3l0.2,0.2l0.2,0.2
		l0.2,0.2l0.2,0.2l0.2,0.2v0.2l0.2,0.2l0.2,0.2l0.2,0.2h0.2v0.2l0.2,0.2c1.2,0.8,2.3,2.1,3.1,0.8c0.7-1.3-2-1.8-3.9-3.8
		c-2-2-1-2.8-3.1-3.6C432.9,386.9,434.2,389,434.7,389.7z M396,367.6h0.2v0.2l0,0l0,0l0.2,0.3l0.2,0.2v0.2l0.2,0.2l0.2,0.3l0.3,0.2
		l0.2,0.3l0.2,0.2l0.2,0.3l0.3,0.3l0.2,0.3l0.2,0.3l0.5,0.5l0.5,0.7l0.5,0.7l0.3,0.2l0.2,0.3l0.3,0.3l0.2,0.2l0.3,0.3l0.2,0.3
		l0.2,0.2l0.2,0.2l0.2,0.3l0.3,0.2v0.2h0.2c1.5,1.5,3.5,3.3,4.4,4.8c0.8,1.5,2,0.7,2.1-0.2c0.2-1-3.5-4.3-2.1-4.3
		c1.2,0,2.3,3,3.9,4.4c1.5,1.5,3,3.6,3.6,4.9c0.8,1.5,2.3,3,4.4,4.9c2.1,2,2.3,3.6,2.3,3.6s0.2-1.8,0-3.9c-0.2-2.1-3.6-3.8-5.9-5.8
		c-1.6-1.5-0.8-3.3-2.3-5.1c-1.5-1.6-6.3-9.9-7.6-10.9c-1.3-1-2,1.2-3,2.3c-0.8,1.2-3-3.9-4.1-5.6c-1-1.5-2.8-5.8-4.3-4.6
		C393.1,360.7,395.5,366.3,396,367.6z M361.8,357.6v0.2v0.2h0.2v0.2l0,0v0.2v0.2l0,0v0.2h0.2l0,0v0.2l0,0v0.2l0.2,0.2l0,0v0.2
		l0.2,0.2v0.2l0,0v0.2l0,0l0,0v0.2l0,0v0.2l0,0c0,1-1.2,0.5-1.2,1.3c0,1-0.3,3,1.6,3.3c2,0.3,2.1,0.5,3.5,0.2
		c1.5-0.3,4.3,0.7,4.9-0.3c0.8-1-0.7-2.3-1.6-2.8c-1.2-0.7-1.3-2.5-2-3.9c-0.7-1.3-2.8-2-4.9-2C361.5,355.8,361.6,356.5,361.8,357.6
		z M391.1,375.5l0.2,0.5l0.3,0.3l0.2,0.5l0.3,0.3l0.3,0.3l0.2,0.3l0.3,0.3l0.3,0.3l0.3,0.3l0.3,0.2l0.3,0.3l0.3,0.3l0.3,0.2l0.3,0.3
		l0.5,0.2l0.3,0.3l0.5,0.2l0.3,0.2l0.5,0.3l0.5,0.2l0.5,0.3l0.5,0.2l0.5,0.2l0.5,0.3l0.5,0.2l0.5,0.3l0.7,0.2l0.5,0.3l0.7,0.2
		l0.7,0.3l0.7,0.3l0.7,0.3c1.8,0.8-10.9-9.4-14.2-13.2c-3-3.1-6.4-8.4-9.1-8.6C378.4,362.5,389.8,372.9,391.1,375.5z M321.5,359.9
		l-0.3,0.2l-0.2,0.2h-0.3l-0.3,0.2l-0.3,0.2l-0.3,0.2l-0.3,0.3l-0.3,0.2l-0.5,0.3l-0.3,0.2l-0.3,0.3l-0.5,0.3l-0.3,0.2l-0.5,0.3
		l-0.8,0.7l-0.8,0.7l-0.8,0.7l-0.8,0.8l-0.3,0.3l-0.3,0.3l-0.5,0.3l-0.3,0.3l-0.3,0.3l-0.2,0.3L311,368l-0.3,0.3l-0.2,0.3l-0.2,0.2
		c-1.3,1.8-0.7,3.6-0.2,3.9c0.5,0.3,1,0.5,1.6-0.2c0.5-0.5,1.3-2.8,2.6-3.6c1.5-0.8,3.5-4.1,4.6-5.1
		C320.2,362.9,324.1,359.3,321.5,359.9z M301.1,369.5h-0.2l0,0h-0.2h-0.2l0,0h-0.2v0.2h-0.2l0,0l0,0h-0.2l0,0l-0.2,0.2l0,0h-0.2l0,0
		l-0.2,0.2l0,0h-0.2h-0.2v0.2h-0.2l0,0l-0.2,0.2l0,0l-0.2,0.2h-0.2h-0.2v0.2h-0.2l-0.2,0.2H298c-1.3,1.2-2.1,1.5-1.5,2.1
		c0.5,0.7,1.2,1.2,2,0.3c0.8-0.8,2.1-2.6,2.8-3C302.1,369.9,301.9,369.5,301.1,369.5z M317.4,355.1h-0.2l-0.3,0.2h-0.2l-0.3,0.2
		l-0.3,0.2l-0.3,0.2l-0.3,0.2l-0.3,0.2l-0.5,0.2l-0.3,0.2l-0.3,0.3l-0.5,0.2l-0.3,0.2l-0.5,0.3l-0.8,0.5l-1,0.5l-0.8,0.3l-0.3,0.3
		l-0.5,0.2l-0.3,0.3l-0.5,0.2l-0.3,0.2l-0.3,0.2l-0.3,0.3l-0.3,0.2l-0.3,0.2h-0.3l-0.3,0.2l-0.2,0.2c-2.5,1.2-4.3,2.6-4.1,3.1
		c0,0.7,0.7,0.8,2.8,1c2.1,0.2,2.1,0,4.1-1.5c1.8-1.5,4.8-4.1,6.1-5.3C316.2,356.9,318,355,317.4,355.1z M490.8,424.9h-0.2h-0.2
		h-0.2l-0.3-0.2h-0.2h-0.2l-0.3-0.2h-0.2h-0.3l-0.2-0.2h-0.2h-0.2h-0.2l-0.2-0.2h-0.2h-0.2h-0.2l-0.2-0.2h-0.2H487h-0.2l-0.2-0.2
		c-3.9-1.2-5.6-3-15.5-3.9c-2-0.2-7.9-7.1-16.8-10.5c-2.5-0.8-17.9-10.2-19.9-10.5c-6.7-0.8-8.6-3.1-7.7-1c0.5,1.2,3,2.6,3.1,6.7
		c0.2,1.3,1.8,5.9,1.8,5.9c-0.2,1.6-21.7-5.4-26.8-13.3c-7.1-10.7-8.4-13.3-12.2-15.8c-3.9-2.3-7.2-4.8-8.6-7.9
		c-0.5-0.7-0.2-2.1-1.3-2.3c-2.3-0.2-4.1,0.3-5.4-2.3c-0.8-1.6-2.3,0.8-3.5,1.8c-1,0.7-3,0.3-2.5,1.6c0.3,1.2-1.5,1.8-0.7,2.5
		c3.6,3.5,1.8,6.6,3.5,7.2c0.7,0.2,1.5,2.5,1.3,3.9c-0.3,3.3,1.8,3.9,2,5.6c0,1.3,1,4.4,0,4.3c-1.5-0.3-3.9-2-5.9-3.8
		c-1.8-1.6-3.3-1.6-3.6-3.1c-0.2-0.7-1.8-1.6-3.9-5.4c-0.3-1,3.1,5.1,4.3,9.2c0.8,3,2.3,6.3,3.9,8.4c1.5,2-0.2,5.4-0.2,5.4
		c-0.5,0-4.8-2.3-5.4-3.8c-1.8-3.3-7.1-3.8-11.4-11.5c-1.5-3,0.2-8.9,0.2-10.5c0-2.5-2.8-3.8-5.1-7.7c-2.3-3.3,0.5-11.7,0-14.3
		c-0.5-2.3,0.7-5.9-0.5-5.9c-1.8,0.2-7.2,5.4-13.8,8.9c-1.2,0.5-3.6,2.6-4.4,2.8c-5.4,1.6-7.6,3.9-10,9.2c-3,6.3-5.1,9.4-6.3,11.7
		c-1.3,2.3,0.5,2.8-1.3,4.4c-1.3,1-11.8,11.4-13.3,12.8c-5.4,5.4-5.9,3.5-5.8,2.8c0.7-2.8,7.1-10,10.9-16.3c2.5-3.8-2.5,0.2-4.3-0.8
		c-3.1-1.8,0.2-5.6,0.8-6.1c1.3-1.5,0.3-2.6,1.2-3.6c2.3-2.5,0.8-2.8,1.6-3.5c1.5-1.2,0.8-1.2,0-0.8c-2,1-7.6,4.3-8.7,5.4
		c-1.6,1.6-15.1,9.9-12.2,5.8c0.7-0.8,1.8-2.1,3.1-3.1c1.5-1.5,2.5-3.8,2.6-5.1c0-1-0.2-2.1,0.5-2.8c6.9-5.9-1-1.3-1.8-0.5
		c-2.3,2.5-9.4,6.6-12.3,8.4c-2,1-7.6,3.6-8.1,5.1c-0.7,1.5-1.3,2.8-2.5,2.3c-2.6-1.2-3.9-0.5-6.1,1.3c-2.1,1.6-3.3-0.3-4.3-0.2
		c-3.3,0.7-5.1-0.7-6.4-0.3c-2.3,0.7-11.8,7.4-14.6,6.6l-1.3,0.2l-0.5-0.7l-0.2-0.5c0.2-0.2,1.6-3,1.3-5.6c-0.2-1.5-0.7-2.6-1.5-4.1
		c-0.7-1.6,2.6-3.3,3.5-4.4c0.8-1,1.5-2.8,3-4.1c1.3-0.8,0.7-2.8,0.2-3.5c-0.3-0.8-2-2-1.3-3.1c0.7-1.3,2.5-0.7,3.9-1.5
		c1.5-1,2.8-4.3,2.8-5.9l2.1-0.8c4.6-1.5,27.3-13.3,27.3-13.3s5.1-2.5,9.4-2.3c5.3,0.5,9.1,0,10.7-0.2c1.5-0.3,2.6-0.8,7.1-0.7
		c4.6,0.2,6.4,0.8,10.2,0.2c3.5-0.7,3.9-3.1,5.6-3.6c1.5-0.3,3.5-1.6,4.3-2.5c2.1-2.8,4.4-2,5.6-3.8c1.6-3,3.9-2,8.9-5.9
		c1-0.8,5.9,0.3,7.6-0.7c1.8-0.8,8.9-6.4,10.4-7.2c1.6-1.2,2.6-3.3,4.6-3c4.3,1,4.9-0.3,7.1,1.6c3.1,3,10.2,7.7,10.5,8.6
		c1.3,3.5,6.6,3.6,6.7,8.2c0.2,2.5,2.5,2.1,2.1,5.9c-0.2,1,6.9-0.3,9.9,2.1c2,1.8,9.5,9.1,10.7,9.5c2,1.2,5.4,4.1,6.9,4.8
		c3.1,1.3,15.3,8.2,18.9,13c1.6,2.1,4.6,1.5,6.4,2.8c4.8,3.5,17.3,11.2,18.9,14.2c1.5,2.6,12.8,10.5,13.3,12.3
		c0.3,2.1,5.6,4.6,5.9,6.4c0.2,1.8,7.2,6.6,9.9,8.6c3,2.1,3.6,2.6,6.1,5.3L490.8,424.9z"/>
	<path id="path6666" class="st4" d="M439,513.6v0.2l-0.2,0.2v0.2l-0.2,0.2v0.2v0.2h-0.2v0.2l-0.2,0.2v0.2l-0.2,0.2v0.2v0.3l-0.2,0.2
		v0.2v0.2c-0.8,2.6-3.3,17.3-3.5,20.6c-0.3,3.5-1.2,4.9-3,6.7c-1.8,2-7.1,6.1-7.4,8.6c-0.2,2.3,0.7,10.5-1,12
		c-2,2-9.4,11.2-12.3,14.2c-2.8,3-7.6,8.2-7.6,8.2l-2.6,3.8c1.3,1.6,3.1,7.1-0.7,10.9c-3.3,3.3-9.9,12.2-18.9,18.6
		c-4.8,3.5-10.2,6.9-11.4,8.4c-1.6,2.1-0.7,6.4-2,7.2c-2.5,1.3-6.6,6.3-8.4,6.9c-2.3,1.2-2.1,2.5-2.8,4.4c-0.7,2-2,2.5-2.5,4.6
		c-1,3.3-6.1,10.9-9.4,16.1c-2.1,3.3-5.4,3.9-9.1,6.6c-6.6,4.4-5.4,2.3-16.5,12.7c-3.8,2.8-8.7,8.4-10.4,9.5
		c-1.5,1.5-6.1,8.1-9.1,11c-3.1,3-6.1,4.8-20.1,7.4c-3.1,0.8-6.3-1.3-11.8-1.3c-2.8,0-10.4-4.3-13-5.9c-2.1-1.3-5.8-3-7.2-4.1
		c-6.3-4.1-9.4-5.3-11.4-6.1c-2.1-1-4.6-2.1-6.4-3.5c-2.5-1.6-6.1-5.6-7.6-6.9c-6.1-5.6-17.1-12.5-18.6-14.3c-1.3-2-4.1-5.9-6.3-8.4
		c-2-2.5-3-1.6-4.1-3.6c-0.7-0.8-0.3-8.6-0.8-10c-0.3-1.6-0.7-3.5-6.1-6.6c-5.4-3.1-7.9-3.5-9.7-6.1c-2-3.1-9.5-11.2-9.9-12.8
		c-0.5-1.8-1.2-6.7-1.5-8.4c-0.3-1.6-1-4.4-4.8-6.9c-1.3-1-1.3-2.3-2-3.1c-0.5-0.8-2.3-1.3-3.1-1.6c-1-0.2-1-2-1.5-4.4
		c-1.3-7.7-3.8-10.4-6.7-13.8c-3-3.3-6.3-6.3-7.2-6.7c-2.3-1-5.1-3.6-6.3-4.9c-1-1.2-2.1-2.5-2.1-4.3s-2-8.7-3.5-11.4
		c-2.1-3.8-3.9-8.9-8.2-14.8c-5.3-6.9-8.2-8.4-9.9-10c-1.2-1.2-1.3-4.1-1-5.8c0.3-2.3-1.3-3.9-3.6-6.7c-2.5-2.5-9.1-9.1-10-10.4
		c-0.8-1-2.6-1.8-4.3-2.1c-1.5-0.3-3.1-3.8-4.1-4.4c-1-0.7-1.2-2-1.2-3.9c0-0.2-0.2-0.7-0.7-1.5c-0.2-0.7-0.5-1.3-0.8-2.1L84,497
		c0.5-0.2,1.2-0.5,1.6-0.7c1.2-0.5,1-1-0.5-1.2c1.2-0.3,2.5-1.3,1.3-1.8c1.3-0.7,2.5-2.1,1.3-2.5c0.8-0.7,1.3-3.5,1.3-3.5
		s0.3,1.6,1.5,2.8c-1.2,0,0.2,0.7,0.7,1.2c-0.7,0.3,0.3,0.7,1,1.3c-1,0.3-0.7,0.8,0.3,1.2c-0.7,0.5,0.5,0.7,1.5,0.3
		c-0.5,0.8-1,0.8-1,0.8s5.1-0.5,7.7-2.3c2.6-1.8,1.6-2.5-0.5-3.5c2-0.7,6.9-2.1,5.3-3.6c1.3-1-0.5-1.6-2.1-2
		c5.9-1.3,6.3-2.3,5.6-2.6c3.1-1.8-0.7-2.6-1.6-3.3c3.9,0.8,3.1-0.5,2.6-1.5c3.3,1.5,3.5-2,2.1-3c1.3-0.2,1.5-2-0.5-3.1
		c3.3,0.3,5.3-0.3,2.6-2.1c1.6-0.7,1.8-1.5,1.2-2.1c1.8-1.2,0.7-2.3-0.2-2.6c1.8-0.8,1.6-2.8,0.7-3.3c1.5-1.8,2.1-5.9,2.1-5.9
		s0,3.1,2.3,4.8c-0.8,0.8-0.3,2.5,1,2.5c-1.3,2-0.5,2.6,1.8,3c-0.8,1.2-1.6,2.1,1.5,2.3c-2.6,1.8-1.6,3,0.8,2.6
		c-2.6,1-1,2.6,1.8,2.1c-2,1.5-2,3.1,1,2.6c-2.8,1.5-3.1,3.5,1.3,3.3c-1.5,0-3,3.9,2.6,5.1c0.5-4.4,2.1-35.1,2.5-40.6
		c0.2-6.1-0.2-10.4-0.2-10.4s-0.5-0.2-3.1,0c-2.5,0.3-3.6,1.2-7.6-0.2c-3.9-1.3-4.6-0.5-7.4-0.3c-2.5,0.2-3.8-0.2-6.6,0.8
		c-3,1.2-6.1-0.3-7.4-1.5c-1.3-1,0-3.3,2.1-3.3c4.8,0.2,5.8-1.5,6.3-2.3c1.3-2.6-1.8-2.1-2.3-3.5c-0.8-2.6-2.3-3.1-3-3.8
		c-1.5-1.5-3.1-0.7-3.9-1c-0.8-0.5-2-0.7-1.5-3c0-0.7-0.5,0.2-2.3,0c-1.8-0.3-0.7-0.3-2.3-0.7c-1.5-0.2-0.5-1.6-2.5-2
		c-1.5-0.2-1.6,0.8-4.1,1c-0.8,0-4.3-0.3-5.6-0.8c-1.3-0.5-3,0.2-3.9-0.7c-1.2-0.8-0.7-2.3-1.2-4.1c0-1,1.6-2.5,2.3-3.9
		c0.8-1.3,2.3-1.8,6.1-1.3c1.6,0.3,4.8,0.5,7.2,0.3c3.8-0.5,2,1.2,4.8,1c2.8,0,6.3-1.6,6.4-3.3c0.3-1.5,0.3-3.1-0.7-3.5
		c-1-0.5-2.5-0.5-3.5-1.8c-1.2-1.3-0.8-2.6-0.8-3.9c0.2-1.2,1.8-2.6,3.5-3.6c3.3-2.1,1.5-3.3,2.5-3.6c1-0.5,2.5-1,4.4-1
		c3.5-0.2,4.9,1,7.6,1.2c3,0,5.9,0.8,8.1,0.8c5.9-0.3,0.3-3.1,3.5-2.6c1.6,0,3.9-0.5,5.6-1.2c2.8-1.3,2.8-3.9,4.3-5.3
		c0.8-0.7,0.7-3.6,0.5-4.8c0-1.3-1.3-3.5-3.3-3.8c-1.8-0.3-3.6,0-5.9-0.3c-2.1-0.3-2.6,0-3.8,0.3c-1.3,0.3-1.3,0.5-2.5,1.3
		c-1.3,1-2.1,1-3.1,2c-1.3,1.2-0.5,3-2,3.8c-3.1,1.6-2.8-0.2-4.3,0.2c-1.5,0.2-2.6,0-3.8-0.3c-1.5-0.3-3.8-0.8-3.9-2
		c-0.2-1.3-1-2-2-2.5c-0.8-0.5-1-1.3-2-1.3c-1.2,0-1.6,0-3.1,1.2c-1.3,1-0.8,2.5-1.3,3.3c-1.3,2-1,3.5-2.3,3.5c-1.5,0,0-1.5-2.5-0.8
		c-1.3,0.3-1.2,1.5-3,2c-1.3,0.5-1.8,0.8-3.8,1.6c-2.3,1-2.8-0.2-4.8-0.7c-1.6-0.5-2.5-1.6-4.8-1.6c-1.6,0.2-0.7-3,1.2-5.1
		c1.6-1.8,3.8-0.7,5.3-2.5c2.8-3.5,2.8-1.5,3.5-4.3c0.5-1.8,2.6-1,2.3-2.8c-0.3-2-1.8-1-2.1-3.3c-0.2-1.3,0.3-3.5,2.3-3.8
		c2-0.2,4.6,1,7.1-0.8c1.8-1,3.9-1.6,5.1-2.8c1-1.2,0.5-2.8,1.3-3.3c0.7-0.5,2.6,0.2,2.1-2.6c-0.5-2.1-3-0.7-4.6-2.1
		c-1.2-0.8-0.8-1.8-1.8-2c-2.8-0.3-1.3,1.6-5.3-0.7c-1.6-1-0.3-1.6-1.6-2.5c-1.5-0.8-2.6,0-5.3-1.3c-2.3-1.2-4.6,0.8-5.3-0.8
		c-0.3-1.2-2.6-2.1-3-2.6c-0.3-0.5-0.8-1.3-0.7-2.8c0.2-1.3-0.2-3.1,1.2-3.8c1.3-0.5,2.1-1.8,3-2.8c1.5-1.6,0.5-3.6,1.5-4.4
		c1.2-1,3.1-5.1-2.1-2.1c-1.6,0.8-3.8-0.2-4.3,0.7c-0.5,0.7-4.1,0.7-4.1-0.8c0-2,3.5-1.8,1.8-4.1c-1.6-2.1-3-0.8-3-3.1
		c-0.2-1.2,2.6-3,4.3-3.6c1.6-0.7,4.1-2.1,7.7-0.5c8.4,4.1,6.9,0.8,9.9,0.8c3.1,0.2,2.3,1.6,8.2,2c2.6,0.2,6.3,0.2,6.3-1.3
		c0-1.6-2.1-1.6-3.6-2c-1.3-0.3-3.3,1.3-4.4-0.8c-0.8-1,2-1.6,1.6-3.5c0-1.8-3,0.2-3.1-1.3c-0.5-2.1,1.5-4.1-0.5-5.4
		c-0.8-0.5-2.5-1-3.9-0.2c-1.3,0.7-2.5,1.8-4.8-0.3c-2.5-2,1.3-3,0.2-4.6c-1-1.6-4.3,0.8-3.5-1.6c0.5-1.2,2.3-3.8,4.4-3.5
		c9.9,1.3,13.2-2,15.1-1.8c2.8,0.5,2.8,1.6,6.1,1.5c2.5-0.2,3.6-2.6,8.1-2.8c7.2-0.2,7.4,1.2,9.9,2c9.1,2.6,5.6-2.1,7.6-2.1
		c2.6,0.2,3-1.5,3-2.5c0-0.8-1.5-1.3-3.6-1.8c-2-0.3-1.6-2-6.1-1.2c-5.6,1.3-8.9,0.3-10.7,1.8c-3,2.3-5.8,1.8-7.1-0.5
		c-1.2-2-4.6-3.1-5.6-2.8c-3.1,0.8-4.8,0.5-5.6-1c-1-1.5-2.6-3.3-4.6-3.8c-1.8-0.5-4.1,1.3-5.3-2.1c-1-2.5,2-2.8,3-4.1
		c1.2-1.3,0-2.6,1.2-3.5c1.8-1.3,4.9-3.1,4.6-4.3c-1.6-3.3-2.6,0.5-3.6-0.3c-3.1-2.3-3.9,0.2-5.4-0.5c-1.6-0.8,2-2.3,2.1-3.8
		c0.3-1.6-0.7-3.1,1.8-5.3c4.1-3.3,1.2-3.3,0.8-4.4c-0.2-1.2,0.8-2.1,0.3-3c-0.5-1.2-1.6-1.3-1.8-2.3c-0.2-1.2,1.2-3.6,2.3-4.3
		c1-0.7,0.2-1.8,4.9-3c4.9-1.2,2-3.3,2-4.1c0-1,0.5-2.3,1.3-2.6c0.8-0.3,1.6,0,3-0.2c1.5-0.2,2.1-0.7,3.8-0.5
		c1.6,0.3,1.5,1.2,2.8,1.5c1.3,0.2,2.3-0.2,3.3-0.2c2.1,0.2,3,1.5,4.8,0.8c1.8-0.8,2-2.1,1.8-3.6c0-1.3-2-0.3-1.8-1.6
		c0.2-1.3,1.3-0.8,1.2-3.5c0-1.2-0.2-2.1,1.6-2.6c2-0.5,2.1-1.3,3.5-1.3c1.2,0.2,3.1,1.3,4.9,1.5c1.2,0,4.1-0.3,4.4,1.2
		c0.5,1.8,1.2,3,1.5,4.1c0.2,0.8,0.2,1.8,1.3,2.3c0.7,0.2,1.3,0.8,1.3,2.1c0,2,0.5,7.1,0.5,7.1s0.7,1.6,1.5,1.3c1-0.3,2-0.8,2.3-6.7
		c0.2-1.3,1-13.8,0.2-15c-1.3-2.3-0.5-3-1.5-4.1c-1-1.2-2.1,0-2.1-1.2c0-1.3,0.2-3.5-1.5-3.8c-2.3-0.5-2.3,2-2.5,3
		c0,1-1.6,1.3-3.6,1.3c-1.3,0-3-0.5-4.1-1.2c-1.2-0.5-1.5-0.5-3-1.6c-0.8-0.5-1.2-1-0.8-4.1c0.3-2.5,2.3-4.3,1.2-5.4
		c-1.2-1-1.5-1.3-4.6-1.3c-3,0-5.1-0.2-4.9-1.8c0.2-2.3,2.8-2.3,7.4-2c2,0.2,3.6-1.5,3.1-3.6c-0.2-0.8,0.7-1.5,0.7-3.3
		c-0.2-2-2.1-3.3-3.8-2.3c-2.1,1.2-3.5,0.3-4.9,1.2c-3,2-4.6,1.3-6.1,0.5c-1-0.7-2-2-1.3-3.5c0.7-1.5,1.3-1.6,1.5-3.5
		c0-1.6-2-1.8-0.5-3.5c1.6-1.8,0-4.4,1.6-5.4c3.3-2.3,0.3-4.3,3-5.6c1.5-0.8,1.8-3,1.8-4.6c0-1.5-1.8-1.8-0.5-3.3
		c1.3-1.3,0.7-3.8,3.5-4.3c2.6-0.3,4.3-1.5,6.4-2.5c1.5-0.5,3.8-2.3,6.4-3.6c1.5-0.8,1.8-0.8,6.3-1.3c1.3-0.2,3.9-2.1,5.1-3.5
		c1.2-1.3,2.5-1.6,5.1-1.8c1.5-0.3,2.3,0.8,4.9,2c2.6,1.2,2.3,3,4.6,3.5c1.5,0.3,4.3-0.3,2.8,2.3c-1.2,2,0.7,3.5-2,3.8
		c-1.5,0.3-2.6,1.2-2.6,2c0.2,1.8,2,2.5,3.9,3.3c2.1,0.8,2.1,2.3,3.3,3.6c0.8,0.8,1,3.5,1.3,5.1c0.3,1.5,0.3,3,0.3,4.3
		c0.2,1.3,1.2,2.5,1,4.6c-0.2,1.8-1.2,3-1.8,4.3c-0.8,1.3-1.5,3-2,3.9c-0.3,1.3-0.2,3.1-0.3,4.3c-0.3,1.3-1,3.5,0,4.1
		c0.8,0.3,1.8,0,3.1,0.3c0.8,0.2,1.8,1.5,2.1,2.1c0.3,0.8-0.2,3.1,2.5,3.6c1,0.2,1.8,1.2,1.8,2c-0.3,2.1-1,3.9,0.8,6.1
		c1.2,1.5,2.6,1.2,5.1,1.2c2.5-0.2,2.1-3.1,2.6-4.9c0.7-1.8,2.5-4.8,4.6-6.1c1.2-0.7-1.2-3.6,4.8-4.1c5.9-0.5,7.9-0.3,8.9,1.3
		c2.1,4.6-0.2,4.8-1.5,6.9c-0.7,1.3-2,1.6-2,3.8c0.2,3.3,3.9,2.6,3.9,4.1c0,0.8-1.3,1-1.5,2.3c0,1.3,2,1.5,2,3.1
		c0,0.8-3.1,2.8-1.2,4.1c1,0.8,2,1.5,2.3,5.3c0.3,1.6-2.3,1.5-2.1,3.3c0.2,2.3-0.2,2.8-1.6,3.6c-2.1,1.2-3.3,3-2.1,4.1
		c1.2,0.8,2.8,0.3,3.6,1.5c0.8,1-0.7,4.8,0.7,5.9c0.8,0.8,3.9-0.5,2.8,1.8c-1.6,3.5,2.5,3.9-1.6,5.9c-2.5,1.2-3.6,1.3-4.9,2
		c-2,0.8-4.4,1.8-4.8,3.1c-0.3,1.5,0.3,3.6-1.6,3.9c-1.8,0.2-1.8,2.6-1.3,3.5c0.5,1,2,2,2,3.1c0,1.3-0.5,3.1-0.2,5.1
		c0.2,1.5,1.2,2.6,2.3,3.3c1.2,0.5-0.8,2-0.2,2.8c0.7,0.8,2.5,1.6,5.6,1.6c2.6,0,6.1-0.5,8.1-0.5c2.1,0,1.3,1.3,2.3,2.1
		c2,1.5,4.8,0,5.9,1.2c2,1.8,3.3,1,3.8,2.8c0.3,1,1.3,1.3,1.8,2.5c0.3,1.2-1,2.5,0.2,3.8c1,1,0.3,2.3-0.2,3.3
		c-0.7,1-1.8,2.3-2.1,3.9c-0.3,1.5,0,2.6-1.5,3.9c-1,1-1.6,2.3-3.5,1.8c-1.8-0.3-3.6-0.8-6.1-1.2c-3-0.7-3,1.2-3.8,2.1
		c-1,1.2-4.8,1.3-4.9,3.5c-0.2,1.5,0.5,1.5,4.3,1c1.3-0.3,1.3,2.5,0.5,3.5c-0.7,1.5-1.8,3.8-4.8,5.1c-1.8,0.7-4.3-2.6-5.1-2.5
		c-1.8,0.3-3.3-1.3-4.6,0c-1.3,1.2-2.3,1.2-3.5,1.8c-1,0.8,0.8,3.6-0.5,3.6c-1.3,0-3-0.2-3.5,1.2c-0.7,1.8,0.7,2.8,2,3.3
		c1.2,0.5,3,1,3,2c0,1-2.8,3.1-0.3,4.1c3.1,1,1.5,2,3.9,2.8c2.6,0.8,7.9,1.6,14.8,4.1c4.8,1.6,8.1,3,8.9,4.6
		c0.7,1.3-0.3,1.5-0.2,2.5c0.3,1,1.8,2.3,4.8,3.5c1.3,0.7,2.8,1.6,3.1,3.1c0.3,1.3-2.5,1.2-1.8,5.1c0.2,2.1-2,2.1-1.6,4.6
		c0.2,2.5-0.3,2.1-1.6,4.4c-1.5,2.6-3.6,3-2.8,4.8c0.5,0.8,2.3,0.8,4.3,0.8c1.2,0,2.1,0.7,6.1,0.8c5.6,0.2,6.3-1.6,10.7-1.8
		c1.5,0,4.1,0.7,4.8,1.6c0.7,0.8,0.3,1.8,0.2,3.1c0,1.6-1.5,4.9-3,5.8c-1.3,0.8-3,0.2-3.8,1.5c-0.7,1.3,1,2.1,1.5,2.8
		c0.3,0.7,1.2,3-0.2,3.9c-1.6,1.2-2.3,3-3.1,3.9c-0.8,1.2-4.1,2.8-3.3,4.4c0.7,1.5,1.3,2.6,1.5,4.1c0.5,3-1,4.4-1.2,5.6
		c-0.2,1.3,1.3,1.2,0.2,2.8c-1.5,2.3-2.8,2.8-2,4.3c0.7,1.6-2.5,1-3.1,1.2c-0.8,0.2-1.5,1.2-1.8,2.6c-0.3,1.3,0.3,3.5-2.3,3.5
		c-2.6,0-6.4,0.2-7.4,1c-0.8,0.8,0.8,2.3-0.3,3c-1.3,0.8-2,0-3,0c-1.2,0-2.5,1.3-2.5,1.3s-1,1.3-1.3,2.1c-0.3,0.8-1.8,1.3-2,2.1
		c-0.2,1,0.8,1.5-0.2,2.8c-0.5,1-1.6,1.5-2.8,2.1c-1.2,0.7-1.6-0.5-2.5,1.2c-0.3,1.3,0,1.8-0.7,2.6c-1,1.2-3,1.5-4.1,2
		c-4.6,1.8-9.9,2.6-10.9,2.6c-1,0-7.1-0.2-7.1-2.3c-0.3-3.5-3.3-3.8-3.6-4.9c-1.2-2.6-4.4-3.8-4.4-5.6c-0.2-2.5-9.1-1.6-9.4,0
		c-0.2,1.3,0,9.5,0,11.4c-0.2,3.3,0,7.1,0.7,23c0.3,10.9-0.2,13,1.2,23.9c0.8,6.4,2.1,9.5,3.1,11.2l2.5-0.8
		c-0.3,0.2,3.6-0.7,1.8-2.3c2.5-0.2,2.6-2.3-1.3-2.5c2.8-0.7,2.6-2.3,1-2.5c2.3-0.7,3.3-1.5,2.3-2.8c2,0.3,1.3-1.5,0.8-2.3
		c1.5,0.5,2.5-0.2,2-1.2c2.5,1.5,4.3-0.2,1.5-1.3c2-0.2,1.3-1.2-1.6-1.5c1.2,0.2,3.3-0.7,2.6-1.6c1.5,1.2,3.5-0.7,1-2.8
		c1.5-0.5,2.3-3,2.3-3.5c0.2,1.6-0.5,4.6,1.3,4.1c-1,1.2-0.8,2.1,2.5,2.1c-3,0.3-3.8,2.6-0.2,3c-1.3,1.2,2.5,0.8,4.1,1.5
		c-2.5,0.2-2.8,1-1.8,1.3c-2.5,1,0.3,1.8,4.1,2.5c-3.6,0.2-4.4,2.5-2.8,3.5c0.8,0.5,2.1,0.3,3.3,0c1-0.3,1.5-0.8,2.6-1.2
		c1-0.3,1.6-1.3-1.5-2.3c1.5,0.3,3.9,0.2,3.1-0.5c3.6-0.5,3.5-2.5-1.6-3.9c1.3,0.5,7.1-0.5,4.3-1.8c1.3-0.3,0.2-2.6-1.6-2.5
		c1.2-0.5,1.5-2.5-0.7-3.1c2.1,0,4.1-0.3,2.3-1.5c1.3,0,2.3-0.5,1.6-1.3c3,0.5,2.3-1.3,1-1.8c0.7-0.5,2.8-1,0.5-2.6
		c1.8,0.2,3.8,0,3.5-0.8c2.1-0.2,3.6-2.5-0.2-2.1c0.5-0.7,1-1.5-0.3-2.1c2.8,0,3.9-3.6,2.8-4.6c1.6,0.2,1.3-4.3,1.2-5.4
		c1,2.5,1.3,3.9,2.5,3.9c-1.3,0.8,0.3,2.6,2,3c-1.5,0.8,1.2,2.6,2.5,2.3c-2.3,1.2-2.5,3.8,3,5.3c-2.3-0.2-1,2.1,0,2.6
		c-0.8-0.5-3.8-0.5-3,0.8c-1.2,0.3-1.8,2.5,1.6,1.5c-0.5,0.8,1.5,1.5,3.9,2c-1.5,1.5-0.8,2.1,1.2,2.5c-0.8,0.5-1.8,1.2-0.3,2.1
		c-1.3,1-3,3,3,3.1c-2.6,1.2-0.3,1.8,1.2,2.6c-4.9-0.2-3.5,3.8,0.2,3.9c-2,0.7-0.8,2.5,1.5,3.3c-1.3,1.2,3.3,1.6,2-0.7
		c2.8-0.3,4.1-2.1,2.1-2.6c3.6-1,1.3-5.3,0.2-5.1c1.6-0.5,3.8-1.6,2.1-3c2.5,0.7,5.3-1.6-1.2-2.1c5.1-0.7,3.8-2.8,1.5-3.6
		c0.7-0.3,6.7,0.5,4.3-2c1.6-0.5-0.2-1.6-2.1-1.5c1.5-0.5,3.6-2,1.6-3c0.8,0.2,1.6-0.2,1-2.1c0.8,0.8,4.6,0.8,3.5-1
		c1.5-0.5,0.2-1.6-0.5-2.3c2.1-0.8,0.8-3.8,0-4.4c11.2-0.7,1-4.3,0-4.6c2.6,0,5.3-0.8,3.9-2c5.6,1.2,2.5-3.6,0.8-4.3
		c0.7-0.2,2.6-1.3,1.5-2.6c2.6,1.2,4.4,0.8,1.8-2c1.2-0.3,0.5-1.8-0.5-2c2.5,0.3,2.5-5.1,2.5-5.1s1.6,4.9,4.1,5.3
		c-2.3,0.8-1.8,4.4-0.2,4.8c-0.5,1.6,2.3,1.5,3.8,1.6c-4.3,0.2-3.5,2.6,0.2,3.1c-1.8,1.2,0,2.5,2.5,2c-2.3,0.8-2.3,2.5,0.7,4.1
		c-1.2,0.7-2.1,2-1,3.1c-1.8,0.2,0,2.5,3.5,3.1c-4.4,0.2-5.4,1.6,0,3.5c-0.8,0.3-0.5,1.6,1.5,2.3c-3,1.3-2.8,3.8,2.5,3.9
		c-2,0.7-0.2,1.3,1.5,2.5c-9.4,0.7-4.3,4.6-0.7,3.9c-3.5,1.5,1.8,1.2,3.8,2.1c-3.3,0.3-7.2,0.8-5.6,1.6c-1.8,0.5-2,3,5.6,2.8
		c-1.3,0.8,1.2,3.3,2.3,3.9c-8.7,1.2-4.6,2.5-0.2,3.5c-1.3,0.3-2.5,2.6,2.3,2.1c-2.8,0.8-5.4,2.1-3.1,3.6c2.3,1.3,2,1.6,29.1,3.9
		c21.4,2.1,25,2.6,30,3.3c5.8,0.8,1.5-2.8-0.3-4.3c8.7,1.3,4.3-2.8,3.1-3.8c1.2,0,3.8-0.7,1.8-2c4.6,0.7,3.1-2.6,2.3-3.5
		c6.1-1.5,3-3.1,0.8-4.3c1.2-0.3,2.1-0.8,1.3-2c3.9,1.5,2.8-0.5,1.3-1.5c1.6,0.2,3.9-2.5,1.5-3.6c2.6-0.7,1.8-1.6,1.2-2.1
		c6.6-0.2-1-3.3,0.8-2.5c3-0.8,5.1-4.1,2.6-4.9c2.3-0.3,3.9-2.3,1.6-3.5c1.3-0.7,1.5-2.8,0.8-3.8c4.3,0.7,3-3,1.8-3.3
		c3.1,0.5,3.5-6.7,3.5-6.7s0.3,4.8,3.3,5.1c-1.8,1,1.6,3.1,3.1,3.6c-2.8,0-3.1,1.8-1.8,2.5c-2.5,0.2,0.2,3,2.1,3.6
		c-4.1,0.8-0.8,2.5,0.3,3.3c-2,0.3-1.8,1.8,0.3,2.3c-2.1,1-0.3,3.3,0.7,3.5c1.2,0.5,2.3,0.2,3.5-0.8c1.6-1.6-0.5-3.1-1.6-3.5
		c4.1-0.7,3.8-3.8,2.5-4.4c3.1-0.2,2.3-3.6,1-4.4c2.5,0,2.6-3,2.8-4.8c0.7,2.3,0.5,4.4,2,5.1c-1.8,2.6,0.5,4.6,2,4.4
		c-1.2,0.7,0.2,2.6,1.5,3.1c-3.8,1,1,3.9,2,3.9c-2.1,2,1.5,3.8,1.5,3.8s-2,2.1-1.5,4.1c0.5,2.3,3.8,1.6,4.8,1c2-1.6-0.3-3.9-1.2-4.4
		c3.5-0.2,2.6-3.9,1-4.4c3.3,0,7.6-1.2,2.8-2.5c-0.7,0.2,3.8-1.6,0.8-2.3c4.1,0.2,1.3-3.8,1.3-3.8s4.4-0.5,2.1-2.3
		c2.3,0.5,2.8-1.8,2.8-1.8s-0.5,2.8,3.1,3.9c-2.3,1.2,0.7,1.2,1.2,1.6c-3.8,1.2-0.8,2.6,1,3.1c-2.1,0.5-2,2.1-0.2,3
		c-1.8,0.3,0.2,1.8,1.8,2.1c-2.6,2-1.5,4.3,0.7,4.6c-2.6,3.6,1.5,3.1,2.5,2.5c1-0.5,1.5-1.5,1.2-2.1c-0.3-0.7-1-0.7-1.8-1
		c3.6-1,1.8-3.1,0.7-3.8c4.8-0.5,3.5-3.5,2.5-4.1c1.3-0.2,2.6-0.7,1.8-1.6c1-0.2,0.7-1.5,1.2-3c0.2,2.1,0.5,3.8,1.6,4.1
		c-0.8,0.8,0.3,1.5,0.8,1.8c-3.1-0.7-0.7,2,0.3,2.1c-1.5,1.2-0.3,1.6,0.8,1.6c-1,1-0.3,1.5,0.8,1.8c-1.3,1,0.3,3.1,2.6,2.3
		c3.5-1.2,0-3.5,0-3.5c2,0,3.5-0.7,2.5-1.6c3.6,1.2,5.8-2,2.8-3.5c1.2-0.3,2.5-3-0.5-3.8c3.5,0.7,5.8-0.5,3.6-3.1
		c2.1,0.3,2-1.6,2.1-2.6c0.5,2.3,1.3,2.3,2.1,2.5c-1.3,1.5-0.2,2.1,0.7,2.6c-0.3,0.8,0.5,2,2,1.8c-0.8,0.7,0.2,1.5,1,1.5
		c-3.9,0.3-2.8,2.6-1,2.5c-0.3,1.5,0,2,2.3,1.6c-1.5,1.8,1.2,2.1,2.1,2.1c-3.5,0-3,3.8-0.7,3.1c-0.2,2.1,3.3,0.7,4.4,1.2
		c-2.5,2.3-1.8,4.1,3.3,3.1c-2.5,3.5,2,2.5,2.3,1.3c3.1,2.1,4.1-1,2.1-2c1.3-0.2,1-1.5-1.2-2c2.8,0,2.1-0.8,1.6-1.6
		c2.1,0.7,3-0.5,2.1-2c2.3,0.5,2.3-2.1,2.3-2.1s0.3,1.6,2,1.3c-0.8,1.8,0.7,2.3,2.8,1.8c-0.8,1.8,0.2,2.3,1.5,2.5
		c0,0.8,0.2,2,1.2,2.5l-0.3,0.7c-1.2,2-1.8,3.6-1.8,4.6c0,2,1.2,3.6-1,5.1l-0.7,0.5c-19.9-1.3-52.8,1.6-66.3,3.1
		c-14.8,1.5-21.6,2.1-21.6,2.1c-30.1,4.3-21.2,4.9,19.7,10c12.3,1.5,13.5,2.3,16.6,2.5c3.1,0.2,4.8,1.2,15.5,2.5
		C428.5,511.3,437,513.4,439,513.6 M106.6,335.2h0.2l0.3-0.2h0.2h0.2l0.2-0.2h0.3l0.2-0.2l0.2-0.2h0.2l0.2-0.2h0.3v-0.2h0.2v-0.2
		h0.2l0,0l0.2-0.2l0,0l0.2-0.2l0,0l0,0c0.8-0.8,1.8-1.2,1.6-2.1c-0.2-0.8,0-2,0-2.5c0-1.6-1.2-1.2-2-0.7c-0.8,0.3-1.2,1.2-1.8,1.8
		c-0.8,0.5-1.8,1.3-3.1,1.8c-1.5,0.5-2.3,1-1.8,1.8c0.5,0.7,0.2,1.5,1.3,1.8C104.9,336,105.9,335.4,106.6,335.2z M132.6,389.4v0.2
		v0.2l0.2,0.2v0.2v0.2v0.2v0.5v0.3v0.3v0.2v0.2v0.2v0.2v0.2v0.2v0.2v0.2l0,0v0.2v0.2l0.2,0.2l0,0v0.2l0,0l0,0l0.2,0.2l0,0l0,0l0,0
		l0,0h0.2l0,0l0,0l0,0c1,0.2,1,0.8,2.1,1c0.7,0,0.3-1,1-1.3c0.8-0.5,1.2,1.2,2.3-1.5c0.5-1.2,1.2-1.2,1.5-1.8c0.5-0.8,0.3-2.1,0-3
		c-0.2-0.8-0.5-2.3-1.2-2.8c-2.5-1.5-4.3-0.7-4.4,0.7c-0.2,0.8-1,0.8-1.2,1.6C133.2,387.9,132.4,388.1,132.6,389.4z M158.7,358.1
		v0.2l0,0l0,0v0.2h-0.2v0.2v0.2v0.2v0.2v0.2v0.2v0.3v0.2v0.3v0.5v0.5v0.7l-0.2,0.7v0.7v0.7v0.8v0.7v0.8v1.5v1.5v0.8v0.7l-0.2,0.8
		v0.7v0.7v0.7v0.5v0.5v0.3v0.2l-0.2,0.3v0.2v0.2v0.2v0.2v0.2c-0.2,1.5,0.3,3,1.2,3c0.8,0,1.5-1,1.5-1s0.7-0.8,0.7,0.3
		c0.2,1.2-0.2,1,0.2,1.3c0.7,0.5,1.5,0.5,2.3-1.2c0.7-1.8-0.2-3.9,1.3-3.8c3.5,0.5,2-2.8,2.6-4.3c0.5-1.6,0.7-6.9,0.5-7.6
		c-0.2-0.5-2.1,0.3-2.1-0.7c-0.2-1.8,1-4.1-1-4.1c-1.5,0-0.8,1.3-1.6,1.5c-0.8,0-0.8,0.2-1.6-0.2c-0.3-1-0.8-1-1.5-1.3
		C159.7,357.9,159.1,357.8,158.7,358.1z M128.5,345.8v0.2v0.2v0.2v0.2v0.2v0.2l0.2,0.2l0,0v0.2v0.2l0,0l0.2,0.2v0.2l0,0v0.2l0.2,0.2
		l0,0l0.2,0.2l0,0v0.2h0.2v0.2h0.2l0,0l0.2,0.2h0.2l0,0l0.2,0.2l0,0h0.2h0.2l0,0c1.2,0.3,1.5,0,2.5,0.5c1.3,0.7,1.6,0.8,3.5,1
		c1.8,0.2,2.3-0.2,2.3-0.8c0-0.8,0.5-2.1,0.8-2.5c0.3-0.7,0.7-2.3-0.2-2.6c-0.8-0.2-2.1-0.2-3.5-0.8c-1.2-0.7-1.3-1.5-3-1.5
		c-1.5,0-1.5,1-2.5,1.8C129.4,344.6,128.6,344.1,128.5,345.8z M158.9,343.8L158.9,343.8v0.2l0,0l0,0l0,0v0.2l0,0h-0.2l0,0v0.2l0,0
		l0,0l0,0l0,0v0.2l0,0l0,0h0.2l0,0v0.2l0,0l0,0v0.2h0.2l0,0v0.2h0.2l0,0h0.2v0.2h0.2l0,0v0.2h0.2h0.2v0.2h0.2v0.2h0.2v0.2h0.2v0.2
		c0.5,0.5-1.2,0.8-0.3,2.1c0.8,1.3,2.1,1,3.9,1.3c2.1,0.2,0.5,1,1.8,2.5c0.8,1,2,1.2,3.9,1.6c1.8,0.5,1,2,3.3,1.8
		c1.5-0.2,5.3-0.7,6.1-2c0.8-1.3,0-2-1.3-3.3c-0.5-0.3,0.7-2-0.3-3.6c-1-1.8-4.1-2.5-4.9-3.1c-1-0.8-2.1-2.5-4.3-3.1
		c-1.6-0.5-0.2-1.2-3-1.3c-1.3,0-3.5,1.2-5.4,1.5C158.9,340.5,159.9,342.3,158.9,343.8z M157.8,321.9h-0.2v0.2v0.2v0.2l0,0v0.2v0.2
		h0.2v0.2v0.2l0.2,0.2l0,0v0.2l0.2,0.2l0.2,0.2v0.2l0.2,0.2v0.2l0.2,0.2l0.2,0.2l0.2,0.2v0.2l0.2,0.3l0.2,0.2l0.2,0.3l0.2,0.2
		l0.2,0.3l0.2,0.3l0.2,0.2l0.2,0.3l0.2,0.5l0.2,0.3c0.5,1,2,0.3,4.3,1.5c1.8,0.8,2.8,0.5,4.3,1.2c1.6,0.7,1.8,1.8,2.8,2.5
		c1,0.8,1.3,0.3,2.3,0.8c0.8,0.3,1.2,1.5,2.5,2.3c1.2,0.8,0.8,1.5,2.3,1.8c1,0.2,0.8-0.7,1.6-0.3c1.2,0.3,1.8,0.3,2.5-0.2
		c0.7-0.7,0-1.5,0-2.6c0-0.7,1.2-0.2,1.2-1c0.3-1.2-1.2-2.1-1.5-2.8c-0.3-0.7,0-1.3-1-3c-0.8-1.8-0.8-0.7-2-2.5
		c-0.8-1.5-0.5-2.6-2-4.4c-2.5-2.3-4.8-2.6-9.4-3.6c-3.9-0.8-8.2-2-9.5-0.8C157.4,317.8,158.6,319.3,157.8,321.9z M178.5,308.2h0.2
		l0,0l0.2-0.2h0.2l0,0l0.2-0.2l0,0l0,0l0.2-0.2l0,0h0.2v-0.2l0,0v-0.2h0.2l0,0v-0.2l0,0v-0.2h0.2l0,0v-0.2l0,0l0,0v-0.2l0,0v-0.2
		l0,0l0,0v-0.2v-0.2l0,0v-0.2l-0.2-0.2l0,0v-0.2l-0.2-0.2l0,0v-0.2h-0.2v-0.2h-0.2l0,0l-0.2-0.2l0,0l0,0l0,0h-0.2l0,0
		c-0.7-0.2-2.5-0.7-3.8-0.7c-1.2,0-1.6-1-4.6-1.2c-3-0.2-7.1-0.5-9.7-0.2c-1.5,0-1.5,1.5-1.2,1.8c2,1.8,0.2,2.8-0.3,3.5
		c-0.7,0.7-0.3,1.2,0.5,2c1,0.8,2.3,0.8,3.1,1.2c1,0.3,1.6,1,3,1.2c1.3,0.2,4.6,1,5.4,1.2c1,0,1.8,0.2,2.1-0.5
		c0.5-0.8,1.6-1.5,2.8-2C177.3,311,177.2,308.9,178.5,308.2z M111.8,268.3L111.8,268.3L111.8,268.3v0.2l0,0l0,0v0.2l0,0l0,0l0.2,0.2
		l0,0l0,0v0.2h0.2l0,0l0,0l0.2,0.2l0,0h0.2l0,0h0.2l0,0l0.2,0.2h0.2l0,0h0.2h0.2l0,0h0.2h0.2l0.2,0.2h0.2l0,0c1.6,0,3.3,0.3,3.8-0.5
		c0.5-0.5,1.2-0.8,1.8-0.8c0.7,0,2.5,0.2,2.1-1.3c-0.2-1.5-2.5-1.6-4.9-1.5c-1.2,0.2-3.3-1.3-4.8-0.3
		C110.4,265.8,112.2,266.8,111.8,268.3z M158.6,279.9L158.6,279.9L158.6,279.9L158.6,279.9v0.2l0,0l0,0l0,0v0.2l0,0l0,0l0,0v0.2l0,0
		l0,0l0,0l0,0v0.2l0,0l0,0v0.2h0.2v0.2l0,0l0.2,0.2l0,0l0,0l0.2,0.2l0,0l0.2,0.2l0,0l0,0h0.2v0.2h0.2l0,0h0.2v0.2l0,0h0.2l0,0l0,0
		l0,0c1,0.2,2-0.7,2.6-1.2c0.5-0.5,1.2-1,2-1.6c0.8-0.7,0-1.6-0.8-1.6c-0.7,0-2.6,1-2.6,1S159.4,278.9,158.6,279.9z M168.6,273.2
		L168.6,273.2l0.2,0.2l0,0h0.2h0.2h0.2h0.2h0.2h0.2h0.2h0.2h0.2h0.2h0.2h0.3h0.5c1.3,0,2.1,0.3,4.4-0.3c1.6-0.3,1.6-0.8,2-1.8
		c0.2-1-1-1.3-2.1-1.8c-1.3-0.5-3.3,0-4.8,0.3c-1.5,0.2-3.3,2-3.3,2S167.8,273,168.6,273.2z M136.7,260.2V260l0.2-0.3l0,0v-0.2v-0.2
		l0,0l-0.2-0.2l0,0V259v-0.2l0,0v-0.2v-0.2l0,0l-0.2-0.2l0,0v-0.2h-0.2V258h-0.2v-0.2H136v-0.2h-0.2v-0.2h-0.2h-0.2l-0.2-0.2l0,0
		h-0.2l0,0l0,0c-1.8-0.7-4.3-0.7-5.4-0.5c-1.2,0.2-4.4,0.7-5.6,1.2c-1.2,0.3,1,2-2.5,1.3c-0.3-0.2-1.3,0.7-0.2,1.6
		c1.3,1,2.3,0.7,2.8,0.7c0.5,0,1.8,0,2.5,0.2c0.7,0.2,0.7,0.5,2.3,0.5c1.6,0.2,2.1-0.5,4.1-0.5C135.2,261.7,136.5,261,136.7,260.2z
		 M156.6,263.3L156.6,263.3L156.6,263.3v-0.2l0,0l0,0l0,0l0,0V263.3L156.6,263.3L156.6,263.3v0.2l0,0l0,0v0.2v0.2l0,0v0.2l0,0v0.2
		v0.2v0.2v0.2v0.3l-0.2,0.2v0.3v0.5v0.3v0.3v0.3v0.8v0.3l-0.2,0.3v0.3v0.3l0.2,0.3v0.3v0.2l0,0v0.2v0.2v0.2l0,0v0.2v0.2l0,0v0.2l0,0
		h0.2c0.5,1.5,1.5,1.3,1.8,0.7c0.7-1,0.8-1.2,1.8-1.6c1-0.3,0-3.1,0.5-4.3c0.7-1,1.2-6.3,0.7-9.2c-0.3-1.3-0.3-2.3-1-3.5
		c-1-1.8-2-2.8-2.8-2c-0.8,1-0.2,1.2-0.8,3.5C156.4,255.6,156.6,264.6,156.6,263.3z M174.4,240.3v0.2l0,0l0,0v0.2l0,0l0,0l0,0v0.2
		h0.2l0,0l0,0v0.2l0,0h0.2l0,0l0,0v0.2h0.2l0,0l0,0h0.2v0.2h0.2h0.2l0,0h0.2l0.2,0.2l0,0h0.2l0,0l0,0h0.2l0,0l0,0l0,0h0.2l0,0l0,0
		l0,0l0,0l0,0h0.2l0,0l0,0l0,0l0,0l0,0l0,0l0,0l0,0l0,0l0,0h-0.2l0,0l0,0c-0.7-0.2,1.8,0.8,2.5,0.3c1.3-1.5,2.3-1.3,3-3
		c0.3-0.8,0.8-1.6,1.3-2.3c0.5-0.7-0.3-1.6-1-1.8c-0.7-0.2-1.2,0.2-2.5,0.8c-1.3,0.7-2.3,1.6-3.1,2.3
		C175.4,238.5,174.5,239.1,174.4,240.3z M173.9,230.2v0.2v0.2l0,0v0.2l0,0v0.2l0,0h0.2v0.2l0,0l0.2,0.2l0,0l0,0l0.2,0.2l0,0h0.2l0,0
		l0.2,0.2h0.2l0,0h0.2h0.2h0.2h0.2h0.2l0,0h0.2h0.2h0.3h0.2l0.2-0.2l0,0h0.2c1.5-0.3,2.5-1.8,3.5-2.6c1-0.8,1.3-1.6,1.2-3
		c-0.3-1.3-3.8,0.3-3.1-0.2c0.7-0.3-2.1,1.8-2.6,2.1C174.7,228.4,173.9,229.4,173.9,230.2z M171.2,221L171.2,221L171.2,221h0.2l0,0
		h0.2l0,0l0,0h0.2v-0.2l0,0l0,0h0.2l0,0v-0.2h0.2l0,0l0,0v-0.2h0.2l0,0v-0.2l0,0l0.2-0.2l0,0l0,0l0.2-0.2l0,0v-0.2l0,0h0.2v-0.2l0,0
		c0.7-0.8,1.2-2.5,1-3.3c-0.2-0.7,1.2-2,0.5-2.6c-0.7-0.8-2.6,2-3.1,2.6c-0.3,0.8-1.6,2.8-1.5,3.6C169.8,220.7,170.4,221,171.2,221z
		 M156.1,220.5v0.3v0.3v0.3v0.3v0.2v0.3v0.3v0.2l0.2,0.3v0.2v0.3v0.2l0.2,0.2v0.3v0.2l0.2,0.2v0.2v0.2l0.2,0.5v0.3l0.2,0.2v0.2v0.2
		v0.2v0.2v0.2v0.2v0.2v0.2l0,0c-0.2,1.8-0.2,2.8,0.7,4.6c0.3,1-0.8,7.6,0.2,8.2c1.2,0.5,1.8-1.3,2.6-2.3c0.8-1,2-7.6,2.3-8.7
		c0.8-2.3,1.5-6.6,1.8-8.6c0.2-2-0.2-5.9-1.2-9.4c-0.7-2.1-1.6-2.6-2.5-3.5c-1-0.7-1.6-0.5-2,0.2c-0.2,0.7-0.5-0.5-0.5-0.5
		c-1.3-0.7-1.6-0.2-1.8,0.7c-0.3,0.5-0.5,3.6-1,4.8C154.6,214.6,156.6,216.1,156.1,220.5z M137.8,196.3h0.2l0,0l0,0l0,0l0,0h0.2l0,0
		v-0.2h0.2l0,0V196h0.2v-0.2v-0.2l0,0l0.2-0.2v-0.2l0,0v-0.2V195l0.2-0.2v-0.2l0,0v-0.2v-0.3v-0.3v-0.2v-0.2v-0.2v-0.2h0.2V193v-0.2
		c0-0.8,0.2-2.3-0.7-3.6c-1-1.2-1.8-0.2-2.3-0.2l-0.3,3c0.3,0.3,0.8,1.3,0.8,2.3C136.7,195.3,137,196.5,137.8,196.3z M142,186.8
		L142,186.8L142,186.8L142,186.8L142,186.8L142,186.8L142,186.8h0.2l0,0l0,0h0.2l0,0l0,0h0.2l0,0h0.2l0,0h0.2l0,0l0.2-0.2l0,0h0.2
		l0.2-0.2h0.2h0.2v-0.2h0.2l0,0h0.2l0,0h0.2l0,0h0.2v-0.2c0.8,0,1.2-0.3,1.8-1.6c0.3-1,0.2-2.5-0.3-3.5c-0.3-1-1.5-0.2-2.1-0.7
		c-0.7-0.5-1.3-1.5-2-1c-0.5,0.5-1.2,2.1-1.2,3C140.5,183.2,141.3,185.8,142,186.8z M140.6,169.7v0.2v0.2v0.2l0,0v0.2h-0.2v0.2l0,0
		v0.2l0,0l-0.2,0.2v0.2l-0.2,0.2v0.2l0,0v0.2l0,0l-0.2,0.2l0,0v0.2l0,0v0.2l0,0l-0.2,0.2v0.2v0.2l0,0v0.2c-0.2,1.5,1.8,3.3,2.1,3.8
		c0.2,0.5,3.1,0.8,3.3,0c0.3-1.3-0.2-2,0.2-4.3c0.3-2-1.5-2.6-2.1-3.8c-0.7-1-1.3-1.5-1.8-0.8C140.8,168,140.8,168.9,140.6,169.7z
		 M153.3,161.5v0.2v0.2l0,0l-0.2,0.2v0.2v0.2l0,0v0.2v0.3v0.3v0.2v0.2v0.2l-0.2,0.2l0,0v0.2v0.2l0,0v0.2v0.2l0,0v0.2l0,0l0,0l0,0
		v0.2l0,0l0,0l0,0l0,0l0,0l0,0l0,0l0,0l0,0c0,0,0.2,2.1-0.5,3c-0.5,0.7-0.2,1.2,0.3,1.8c0.7,0.5,0.8,0.3,1.5,0
		c0.8-0.3,0.5,0.8,0.8,1.3l2-0.5c0.2-0.5,0.8-2.5,1-3.8c0.3-1.8,0.5-3.5,0.2-6.7c-0.3-3.5-3.5-1.5-3.5-1.5S153.3,159.1,153.3,161.5z
		 M123.2,231.2L123.2,231.2l0.2,0.2l0,0v0.2l0,0v0.2h0.2v0.2l0.2,0.2v0.2h0.2v0.2l0,0l0.2,0.2l0,0l0.2,0.2l0,0h0.2v0.2h0.2l0,0
		l0.2,0.2h0.2l0,0l0.2,0.2h0.2v0.2h0.2l0.2,0.2h0.2l0.2,0.2h0.2l0.2,0.2l0,0l0.2,0.2l0,0l0.2,0.2c1.3,1-0.8,2,1,3.5
		c1.5,1,0.5,1.8,5.3,2.1c2.8,0,2.1-0.8,4.6-2c2.1-1-1.6-2.5-1-4.1c0.2-0.5-1.5-2.5-4.1-2.8c-2.1-0.2-2.1-2.1-3.1-2.6
		c-1-0.5-2-0.3-3.5-0.7c-1.5-0.2-2.6-0.8-3.3,0.3C121.9,228.8,122.7,229.7,123.2,231.2z M169.9,398.7h0.2l0,0v0.2l0,0h0.2h0.2h0.2
		v0.2h0.2h0.2h0.2l0,0l0.2-0.2h0.2h0.2h0.2h0.2h0.2l0.2-0.2h0.3l0.3-0.2h0.2h0.2h0.2l0,0h0.2h0.2h0.2h0.2l0,0h0.2c3,0.7,3,0,5.3-0.2
		c3-0.3,3-1.6,3.9-1.8c1.3,0,3.3,0,5.4-1.3c0.8-0.7,0.8-1.5,0.7-2.1c0-1.3-0.8-1.2-1.8-1.2c-1,0-0.2-0.7,0.8-1
		c0.8-0.2,1.6-0.3,2.3-1c0.5-0.5,0.5-1-0.7-2c-1.3-0.7-2,0-12.3,3c-10.4,3-9.4,5.3-8.6,5.6C170.8,396.8,168.9,398.1,169.9,398.7z"/>
	<path id="path6712" class="st3" d="M97.5,427.5l-0.3,0.2H97h-0.3l-0.2,0.2h-0.2H96h-0.2h-0.2h-0.3l-0.2-0.2h-0.2h-0.3h-0.3
		l-0.5-0.2h-0.3l-0.5-0.2h-0.5l-0.2-0.2h-0.2h-0.3h-0.2h-0.3h-0.2h-0.3h-0.2h-0.3l-0.2,0.2c-3.8,0.8-13.3,1.3-19.4,2.1
		c-1.3,0.3-1.5,0.3-7.6,0.8c-3.6,0.3-7.4,0.7-8.4,0.2v0.2c0.3,1.3,1.2,3.3,2.3,5.9c1.3,3.1,3.8,11.7,4.3,13.7c0.5,2-0.3,4.6,0.2,6.3
		c0.7,1.8,2.6,3.3,3.3,4.8c0.7,1.5,5.9,12,8.2,15.6c2,2.8,7.9,14,10.7,19.9L84,497c0.5-0.2,1.2-0.5,1.6-0.7c1.2-0.5,1-0.8-0.5-1.2
		c1.2-0.2,2.5-1.3,1.3-1.8c1.3-0.7,2.5-2.1,1.3-2.5c0.8-0.7,1.3-3.5,1.3-3.5s0.3,1.6,1.5,2.8c-1.2,0,0.2,0.7,0.7,1.2
		c-0.7,0.3,0.3,0.7,1,1.3c-1,0.3-0.7,0.8,0.3,1.2c-0.7,0.5,0.5,0.8,1.5,0.3c-0.5,0.8-1,0.8-1,0.8s5.1-0.5,7.7-2.3
		c2.6-1.8,1.6-2.5-0.5-3.5c2-0.7,6.9-2.1,5.3-3.6c1.3-1-0.5-1.6-2.1-2c5.9-1.3,6.3-2.3,5.6-2.6c3.1-1.8-0.7-2.6-1.6-3.3
		c3.9,0.8,3.1-0.5,2.6-1.5c3.3,1.5,3.5-2,2.1-3c1.3-0.2,1.5-2-0.5-3.1c3.3,0.3,5.3-0.3,2.6-2.1c1.6-0.7,1.8-1.5,1.2-2.1
		c1.8-1.2,0.7-2.3-0.2-2.6c1.8-0.8,1.6-2.8,0.7-3.3c1.5-1.8,2.1-5.9,2.1-5.9s0,3.3,2.3,4.8c-0.8,0.8-0.3,2.5,1,2.5
		c-1.3,2-0.5,2.6,1.8,3c-0.8,1.2-1.6,2.3,1.5,2.3c-2.6,1.8-1.6,3,0.8,2.6c-2.6,1-1,2.6,1.8,2.1c-2,1.5-2,3.1,1,2.6
		c-2.8,1.5-3.1,3.5,1.3,3.3c-1.5,0-3,3.9,2.6,5.1c0.5-4.4,2.1-35.1,2.5-40.5c0.2-6.3-0.2-10.4-0.2-10.4s-0.5-0.3-3.1-0.2
		c-2.5,0.3-3.6,1.2-7.6-0.2c-3.9-1.3-4.6-0.5-7.4-0.2c-2.5,0-3.8-0.3-6.6,0.7c-3,1.2-6.1-0.3-7.4-1.5c-1.3-1,0-3.3,2.1-3.3
		C108.1,427.1,100.2,426.6,97.5,427.5z"/>
	<path id="path6714" class="st1" d="M439,513.6h-0.2h-0.3h-0.2l-0.3-0.2h-0.3h-0.5l-0.3-0.2h-0.5l-0.3-0.2h-0.5L435,513l-0.5-0.2
		h-0.5l-0.7-0.2l-0.5-0.2h-0.7l-1.2-0.3l-1.2-0.2l-1.2-0.3l-1.2-0.2l-1.2-0.2l-0.5-0.2h-0.7l-0.5-0.2h-0.5l-0.5-0.2h-0.5
		c-10.7-1.3-12.3-2.3-15.5-2.6c-3.1-0.2-4.3-0.8-16.6-2.5c-41-5.1-49.9-5.8-19.7-9.9c0,0,6.7-0.8,21.6-2.3c13.3-1.5,46.4-4.4,66.3-3
		l-0.5,0.3c-4.3,3.6-12.8,14.2-14.8,16.3c-1.3,1.8-3.1,3.5-4.4,5.8C439.3,513.1,439.3,513.4,439,513.6z"/>
	<path id="path6718" class="st1" d="M237.1,539.8L237.1,539.8h0.2l0,0h0.2l0.2-0.2h0.2l0.2-0.2h0.2l0.3-0.2h0.3l0.2-0.2l0.3-0.2h0.3
		l0.5-0.2l0.3-0.2l0.5-0.2h0.3l0.5-0.2l0.5-0.2l0.5-0.2l0.5-0.2h0.5l0.5-0.2l0.7-0.2h0.5l0.7-0.2l0.5-0.2h0.7l0.7-0.2h0.5h0.7
		l0.7-0.2c7.7-0.3,6.6,0.5,14,1.2c0.8,0.3,2.6,0.3,4.4,0.7c1.8,0.3,5.4,0.3,8.1,1.2c2.5,1,6.1,2.8,8.2,3.3c2.1,0.3,3.6,0.8,5.4,1.5
		c1.8,0.5,2.6,1,4.3,1.6c1.6,0.7,5.9,2.3,9.9,3.1c3.9,1,6.6,1.2,9.5,1.8c3,0.8,8.9,1.8,11.4,2.8c3.5,1.6,8.7,3.9,11,6.3
		c2.3,2.6,3.5,3.1,5.3,10.4c1,3.5,0,4.6-0.8,8.6c-0.8,3.9-1.5,5.1-1,6.4c0.3,1.5,0.2,3.6-0.3,4.9c-0.7,1.3-1.5,1.6-2,2.5
		c-0.5,0.8-2.3,2.1-2.3,2.1s-1-0.3-1.3-1c-0.3-0.5-0.5-1.2-1-1.8c-0.3-0.8-1.2-1.6-1-2.5c0.2-0.8-0.5-1.3,0.3-2.8
		c1-1.2,1.5-2.5,1.5-2.5s1.2-2.5,1.5-4.1c0.3-1.6,1-4.6,0.8-5.6c-0.2-1-0.5-3.6-0.5-3.6l-1.5-2c0,0-1.6-0.7-2.1,0.7
		c-0.5,1.8-0.3,1.3-1.5,5.4c-0.8,3-0.5,2.1-2,5.8c-1.5,3.6-2.3,4.4-2.8,6.6c-0.5,2.1,2.8,4.3,3.6,7.9c0.8,3.9,1.5,5.3,2.1,6.1
		c0.5,1,0.5,2,1.2,2.1c0.7,0.2,1.6,0.3,0.8,2.6c-0.7,2.1-2.8,7.1-3.1,9.7c-0.3,2.5-0.2,4.1-0.3,4.3c0,0.3-0.5,0.3-0.7,0.8
		c-0.2,0.3-0.2,0.5-0.2,1.3c0,1.2-0.3,4.1-0.3,4.1s0.3,1.2-1,1.2c-1.2-0.2-7.4-0.2-8.2-0.2c-0.8-0.2-2.3-0.7-2-1.6
		c0.2-1.3,0.3-3.3,1-3.8c0.8-0.3,1.8-0.8,1.8-0.8s0.8-2.1,1.2-3.1c0.3-1.2,0.5-2.6,1-3.5c0.3-0.8,0.7-3.6,0.7-4.6
		c0-0.8,0.2-4.4-2.1-7.6c-2-3.1-1.2-3-3-4.1c-1.8-1.2-4.4-2.8-6.7-3c-1.5-0.2-3.6,0.7-4.9,1.2c-1.2,0.7-3.6,1.8-5.8,2.8
		c-2.5,1.3-4.8,2.5-5.8,3c-0.8,0.5-1.6,0.2-1.8-0.8c-0.2-1,0-2-1.2-2c-1.2,0.3-1.6,0.3-3,0.8c-1,0.3-2.5,1.5-3.1,3.3
		c-0.5,1.8-0.8,2-1.5,3.9c-0.3,1.2-0.8,2.3-2.1,3.5c-1,0.8-0.8,0.3-3.1,2.5c-1.8,1.6-1.8,1.8-3,3.8c-1,2.1-0.8,3.5-1.2,4.1
		c-0.3,0.7-0.2,1.8-0.3,2.3c0,0.7-0.2,2.3-0.2,2.3s0,1.5-0.7,1.5c-2.8,0-6.3,0.2-7.6,0.2c-1.2,0-1.6-0.5-1.3-1.3
		c0.8-2,1.8-2.8,2-3.3c0.2-0.5,0.7-3.5,0.2-5.4c-0.3-0.8-2.3-3.5-2.6-4.1c-0.3-0.5-0.3-2.3-1.2-2.8c-1-0.7-2.5-2.5-2.8-3
		c-0.3-0.7-2.8-2-3.8-2c-1.2,0-7.4-1.3-8.9-2.1c-1.5-0.8-6.1-3.3-6.9-3.8c-0.8-0.5-3.6-2-4.4-2c-0.8,0-1.8-0.3-2.8,0.8
		c-1.8,1.6-2.5,1.6-3.3,2.5c-1,0.7-0.8,0.8-1.5,1.6c-0.5,1-1.8,3.5-2.1,4.3c-1.8,3.6-3.5,3.1-3.5,3.1s-1.6,0.8-4.1-3.1
		c-2.5-3.9-3.5-5.4-3.5-5.4s-1.5-1.2-2.5-1c-1,0.2-3.8,0.7-4.4,0.7c-0.8-0.3-2,0.2-2.8-1.2c-0.8-1.3-1.8-3.1-1.6-5.9
		c0.3-2.6-1-4.4-1.2-5.3c-0.2-0.7-1.2-1.6-1.8-3.6c-0.7-1.8-0.5-4.3-1.8-6.9c-1.5-2.1-2.1-6.9-2.1-6.9s0-1.2,0.2-3.1
		c0.3-2.1,0-3.8,0.7-6.4c0.5-2.5,1.2-4.3,3.3-5.9c1.5-1,2.6-3.1,4.6-3.9c1.6-0.7,3.8-2.3,5.3-2.3s2-1,5.1-0.5c3,0.7,5.3,1.3,7.2,1
		c1.8-0.3,3.9-0.3,5.6-2.8c1.8-2.3,3.3-4.6,4.1-5.1C233.6,542.1,237.1,539.8,237.1,539.8z M218.1,567.9L218.1,567.9L218.1,567.9
		L218.1,567.9h0.2l0,0l0,0l0,0h0.2l0,0l0,0h0.2h0.2h0.2h0.2l0.2,0.2h0.3h0.2l0.2,0.2h0.3l0.2,0.2h0.3l0.2,0.2l0.2,0.2l0.3,0.2
		l0.2,0.2h0.2l0.2,0.2v0.2h0.2l0.2,0.2v0.2l0.2,0.2l0,0l0.2,0.2v0.2l0.2,0.2v0.2l0.2,0.2v0.2l0.2,0.2v0.2v0.3l0.2,0.2v0.2v0.2v0.3
		v0.2v0.3v0.2c4.1-3.6,3.8-6.6,3.8-6.6s0.3-4.4-3.1-8.1c-3.6-3.5-4.1-2-3.8,0.5c0.3,2.5,1.2,3.1,0.2,4.9
		C219.5,565.8,218.1,567.9,218.1,567.9z M211.1,574.7v0.2h-0.2l0,0v0.2l0,0l0,0l-0.2,0.2l0,0l0,0v0.2h-0.2l0,0l0,0v0.2h-0.2l0,0
		l-0.2,0.2l0,0v0.2h-0.2l0,0l-0.2,0.2h-0.2c-0.5,0.3-1.5,1.6,0.2,2c1.8,0.3,2.3,0.2,3.6,0c1.6-0.3,2.8-0.5,3.6-0.8
		c1-0.2,1.8-1.8,0-2.1c-2.3-0.7-2.6-2-4.1-1.8C211.6,573.2,211.4,574.2,211.1,574.7z"/>
	<polygon id="polygon6724" class="st1" points="238.6,162.3 250.7,162.3 262.7,185.3 262.9,185.3 262.7,162.3 271.5,162.3 
		271.5,196.3 259.6,196.3 247.1,173.1 247.1,173.1 247.4,196.3 238.6,196.3 	"/>
	<polygon id="polygon6726" class="st5" points="238.6,162.3 250.7,162.3 262.7,185.3 262.9,185.3 262.7,162.3 271.5,162.3 
		271.5,196.3 259.6,196.3 247.1,173.1 247.1,173.1 247.4,196.3 238.6,196.3 	"/>
	<path id="polygon6728" class="st1" d="M289.4,162.3h11.7l13.7,34.1h-10.4l-2.6-7.2h-13.5l-2.8,7.2h-9.5L289.4,162.3z M295.3,169.3
		h-0.2l-4.6,13.3h8.9L295.3,169.3z"/>
	<path id="polygon6732" class="st6" d="M289.4,162.3h11.7l13.7,34.1h-10.4l-2.6-7.2h-13.5l-2.8,7.2h-9.5L289.4,162.3z M295.3,169.3
		h-0.2l-4.6,13.3h8.9L295.3,169.3z"/>
	<polygon id="polygon6736" class="st1" points="321.7,169 312.9,169 312.9,162.3 339.9,162.3 339.9,169 331.2,169 331.2,196.3 
		321.7,196.3 	"/>
	<polygon id="polygon6738" class="st5" points="321.7,169 312.9,169 312.9,162.3 339.9,162.3 339.9,169 331.2,169 331.2,196.3 
		321.7,196.3 	"/>
	<polygon id="polygon6740" class="st1" points="345,196.3 354.6,196.3 354.6,162.3 345,162.3 	"/>
	<polygon id="polygon6742" class="st5" points="345,196.3 354.6,196.3 354.6,162.3 345,162.3 	"/>
	<path id="path6744" class="st1" d="M378.8,161.6h1l1.2,0.2h1l1,0.2l1,0.2l0.8,0.3l1,0.2l0.8,0.3l0.8,0.3l0.8,0.3l0.7,0.3l0.8,0.5
		l0.7,0.5l0.7,0.5l0.5,0.5l0.7,0.5l0.5,0.7l0.5,0.5l0.5,0.7l0.5,0.7l0.3,0.8l0.5,0.7l0.3,0.8l0.3,0.8l0.2,0.8l0.3,0.8l0.2,0.8l0.2,1
		l0.2,0.8v1v1l0.2,1c0,10.9-6.3,17.6-17.9,17.6c-11.7,0-17.9-6.7-17.9-17.6C360.8,168.4,366.9,161.6,378.8,161.6z M378.8,190.1h0.5
		h0.5l0.5-0.2h0.5l0.5-0.2l0.3-0.2l0.5-0.2l0.3-0.2l0.3-0.3l0.5-0.2l0.3-0.3l0.3-0.3l0.2-0.2l0.3-0.3l0.3-0.5l0.2-0.3l0.3-0.3
		l0.2-0.5l0.2-0.3l0.3-0.5l0.2-0.3v-0.5l0.2-0.5l0.2-0.5l0.2-0.5v-0.5l0.2-0.5v-0.5v-0.5l0.2-0.5v-0.5v-0.7c0-5.9-2.3-10.9-8.1-10.9
		c-5.9,0-8.2,4.9-8.2,10.9C370.5,185,372.8,190.1,378.8,190.1z"/>
	<path id="path6748" class="st7" d="M378.8,161.6h1l1.2,0.2h1l1,0.2l1,0.2l0.8,0.3l1,0.2l0.8,0.3l0.8,0.3l0.8,0.3l0.7,0.3l0.8,0.5
		l0.7,0.5l0.7,0.5l0.5,0.5l0.7,0.5l0.5,0.7l0.5,0.5l0.5,0.7l0.5,0.7l0.3,0.8l0.5,0.7l0.3,0.8l0.3,0.8l0.2,0.8l0.3,0.8l0.2,0.8l0.2,1
		l0.2,0.8v1v1l0.2,1c0,10.9-6.4,17.6-17.9,17.6c-11.7,0-17.9-6.7-17.9-17.6C360.8,168.4,366.9,161.6,378.8,161.6z M378.8,190.2h0.5
		l0.5-0.2h0.5l0.5-0.2l0.5-0.2h0.3l0.5-0.3l0.3-0.2l0.3-0.2l0.5-0.3l0.3-0.2l0.3-0.3l0.2-0.3l0.3-0.3l0.3-0.3l0.2-0.5l0.3-0.3
		l0.2-0.3l0.2-0.5l0.3-0.5l0.2-0.3v-0.5l0.2-0.5l0.2-0.5l0.2-0.5v-0.5l0.2-0.5v-0.5v-0.5l0.2-0.5v-0.5v-0.7c0-5.9-2.3-10.9-8.1-10.9
		c-5.9,0-8.2,4.9-8.2,10.9C370.5,185,372.8,190.2,378.8,190.2z"/>
	<polygon id="polygon6752" class="st1" points="402.6,162.3 414.6,162.3 426.8,185.3 427,185.3 426.6,162.3 435.4,162.3 
		435.4,196.3 423.5,196.3 411,173.1 411,173.1 411.3,196.3 402.6,196.3 	"/>
	<polygon id="polygon6754" class="st5" points="402.6,162.3 414.6,162.3 426.8,185.3 427,185.3 426.6,162.3 435.4,162.3 
		435.4,196.3 423.5,196.3 411,173.1 411,173.1 411.3,196.3 402.6,196.3 	"/>
	<path id="polygon6756" class="st1" d="M453.3,162.3H465l13.8,34.1h-10.4l-2.8-7.2h-13.3l-2.8,7.2h-9.7L453.3,162.3z M459.2,169.3
		h-0.2l-4.6,13.3h8.9L459.2,169.3z"/>
	<path id="polygon6760" class="st6" d="M453.3,162.3H465l13.8,34.1h-10.4l-2.8-7.2h-13.3l-2.8,7.2h-9.7L453.3,162.3z M459.2,169.3
		h-0.2l-4.6,13.3h8.9L459.2,169.3z"/>
	<polygon id="polygon6764" class="st1" points="483.1,162.3 492.5,162.3 492.5,189.6 507.3,189.6 507.3,196.3 483.1,196.3 	"/>
	<polygon id="polygon6766" class="st5" points="483.1,162.3 492.5,162.3 492.5,189.6 507.3,189.6 507.3,196.3 483.1,196.3 	"/>
	<path id="path6768" class="st1" d="M302.6,216.9h11.7c11.2,0,16.5,3.6,16.5,11.2c0,6.9-5.4,11-14.5,11h-3.9V251h-9.7V216.9z
		 M312.3,232.7h2.6c3.5,0,6.1-1.2,6.1-4.8c0-3.5-2.6-4.6-6.1-4.6h-2.6V232.7z"/>
	<path id="path6772" class="st7" d="M302.6,216.9h11.7c11.2,0,16.5,3.6,16.5,11.2c0,6.9-5.4,11-14.5,11h-3.9V251h-9.7V216.9z
		 M312.3,232.7h2.6c3.5,0,6.1-1.2,6.1-4.8c0-3.5-2.6-4.6-6.1-4.6h-2.6V232.7z"/>
	<path id="polygon6776" class="st1" d="M342.9,216.9h12L369,251h-10.9l-2.6-7.2h-13.8l-3,7.2h-9.9L342.9,216.9z M348.8,223.8
		L348.8,223.8l-4.8,13.5h9.2L348.8,223.8z"/>
	<path id="polygon6780" class="st6" d="M342.9,216.9h12L369,251h-10.9l-2.6-7.2h-13.8l-3,7.2h-9.9L342.9,216.9z M348.8,223.8
		L348.8,223.8l-4.8,13.5h9.2L348.8,223.8z"/>
	<path id="path6784" class="st1" d="M373.2,216.9h17.4c6.6,0,11.8,2.8,11.8,8.6c0,4.6-2.3,7.6-7.1,8.7l0,0c3.1,0.8,3.3,3.3,5.1,7.4
		l3.6,9.4h-10.2l-2-6.3c-2.1-5.8-3.3-7.2-7.1-7.2h-2V251h-9.7V216.9z M382.9,231.1h2.6c3.1,0,7.1-0.2,7.1-3.9c0-3.3-3.5-3.8-7.1-3.8
		h-2.6V231.1z"/>
	<path id="path6788" class="st7" d="M373.2,216.9h17.4c6.6,0,11.8,2.8,11.8,8.6c0,4.6-2.3,7.6-7.1,8.7l0,0c3.1,0.8,3.3,3.3,5.1,7.4
		l3.6,9.4h-10.2l-2-6.3c-2.1-5.8-3.3-7.2-7.1-7.2h-2V251h-9.7V216.9z M382.9,231.1h2.6c3.1,0,7.1-0.2,7.1-3.9c0-3.3-3.5-3.8-7.1-3.8
		h-2.6V231.1z"/>
	<polygon id="polygon6792" class="st1" points="409,216.9 418.7,216.9 418.7,230.9 418.9,230.9 429.9,216.9 441.6,216.9 
		428.1,232.7 442.8,251 430.3,251 418.9,235.5 418.7,235.5 418.7,251 409,251 	"/>
	<polygon id="polygon6794" class="st5" points="409,216.9 418.7,216.9 418.7,230.9 418.9,230.9 429.9,216.9 441.6,216.9 
		428.1,232.7 442.8,251 430.3,251 418.9,235.5 418.7,235.5 418.7,251 409,251 	"/>
	<path id="path6796" class="st1" d="M263.4,297.2l0.5,0.2l0.5,0.3l0.5,0.2l0.5,0.2l0.7,0.2l0.5,0.2l0.7,0.3h0.7l0.5,0.2l0.7,0.2
		l0.8,0.2h0.7l0.7,0.2h0.7h0.8h0.7c3.3,0,6.1-0.5,6.1-3.3c0-6.4-17.3-2.3-17.3-14.6c0-8.2,8.6-10.4,16-10.4c3.5,0,6.9,0.3,9.4,1.2
		l-0.7,7.1c-2.5-1.2-5.3-1.6-8.1-1.6c-2.5,0-6.6,0.3-6.6,3.3c0,5.4,17.3,1.8,17.3,14c0,8.9-7.9,11.2-16.1,11.2
		c-3.3,0-7.6-0.5-10.7-1.5L263.4,297.2z"/>
	<path id="path6798" class="st7" d="M263.4,297.2l0.5,0.2l0.5,0.3l0.5,0.2l0.5,0.2l0.7,0.2l0.5,0.2l0.7,0.3h0.7l0.5,0.2l0.7,0.2
		l0.8,0.2h0.7l0.7,0.2h0.7h0.8h0.7c3.3,0,6.1-0.5,6.1-3.3c0-6.4-17.3-2.3-17.3-14.6c0-8.2,8.6-10.4,16-10.4c3.5,0,6.9,0.3,9.4,1.2
		l-0.7,7.1c-2.5-1.2-5.3-1.6-8.1-1.6c-2.5,0-6.6,0.3-6.6,3.3c0,5.4,17.3,1.8,17.3,14c0,8.9-7.9,11.2-16.1,11.2
		c-3.3,0-7.6-0.5-10.7-1.5L263.4,297.2z"/>
	<polygon id="polygon6800" class="st1" points="295.3,271.5 321,271.5 321,278 305,278 305,284.9 320.2,284.9 320.2,291.5 
		305,291.5 305,299 321.5,299 321.5,305.6 295.3,305.6 	"/>
	<polygon id="polygon6802" class="st5" points="295.3,271.5 321,271.5 321,278 305,278 305,284.9 320.2,284.9 320.2,291.5 
		305,291.5 305,299 321.5,299 321.5,305.6 295.3,305.6 	"/>
	<path id="path6804" class="st1" d="M327.7,271.5H345c6.4,0,11.7,2.8,11.7,8.6c0,4.6-2.3,7.6-6.9,8.7l0,0c3.1,0.8,3.3,3.5,5.1,7.6
		l3.6,9.2h-10.2l-2.1-6.3c-1.8-5.8-3.1-7.2-6.7-7.2h-2v13.5h-9.7V271.5z M337.5,285.7h2.5c3.1,0,7.1-0.2,7.1-3.9
		c0-3.1-3.3-3.8-7.1-3.8h-2.5V285.7z"/>
	<path id="path6808" class="st7" d="M327.7,271.5H345c6.4,0,11.7,2.8,11.7,8.6c0,4.6-2.3,7.6-6.9,8.7l0,0c3.1,0.8,3.3,3.5,5.1,7.6
		l3.6,9.2h-10.2l-2.1-6.3c-1.8-5.8-3.1-7.2-6.7-7.2h-2v13.5h-9.7V271.5z M337.5,285.7h2.5c3.1,0,7.1-0.2,7.1-3.9
		c0-3.1-3.3-3.8-7.1-3.8h-2.5V285.7z"/>
	<polygon id="polygon6812" class="st1" points="360.7,271.5 371,271.5 379.1,298.2 379.3,298.2 387.3,271.5 397.2,271.5 
		384.8,305.6 372.8,305.6 	"/>
	<polygon id="polygon6814" class="st5" points="360.7,271.5 371,271.5 379.1,298.2 379.3,298.2 387.3,271.5 397.2,271.5 
		384.8,305.6 372.8,305.6 	"/>
	<polygon id="polygon6816" class="st1" points="402.3,305.6 411.8,305.6 411.8,271.5 402.3,271.5 	"/>
	<polygon id="polygon6818" class="st5" points="402.3,305.6 411.8,305.6 411.8,271.5 402.3,271.5 	"/>
	<path id="path6820" class="st1" d="M450,304.8l-0.5,0.2l-0.7,0.2h-0.5l-0.5,0.2l-0.7,0.2h-0.5l-0.7,0.2h-0.7l-0.7,0.2h-0.7
		l-0.3,0.2h-0.5h-0.3h-0.3h-0.5l-0.3,0.2h-0.5H441h-0.5h-0.3h-0.5h-0.5c-9.7,0-20.9-4.6-20.9-17.3c0-12,8.9-17.8,20.9-17.8
		c3.6,0,7.2,0.7,10.7,1.6l-0.7,7.4c-3.1-1.6-6.3-2.5-9.5-2.5c-6.7,0-11.4,4.8-11.4,11.2c0,6.6,5.1,10.5,12.2,10.5
		c3.1,0,6.4-0.8,9.1-1.6L450,304.8z"/>
	<path id="path6822" class="st7" d="M450,304.8l-0.5,0.2l-0.7,0.2h-0.5l-0.5,0.2l-0.7,0.2h-0.5l-0.7,0.2h-0.7l-0.7,0.2h-0.7
		l-0.3,0.2h-0.5h-0.3h-0.3h-0.5l-0.3,0.2h-0.5H441h-0.5h-0.3h-0.5h-0.5c-9.7,0-20.9-4.6-20.9-17.3c0-12,8.9-17.8,20.9-17.8
		c3.6,0,7.2,0.7,10.7,1.6l-0.7,7.4c-3.1-1.6-6.3-2.5-9.5-2.5c-6.7,0-11.4,4.8-11.4,11.2c0,6.6,5.1,10.5,12.2,10.5
		c3.1,0,6.4-0.8,9.1-1.6L450,304.8z"/>
	<polygon id="polygon6824" class="st1" points="454.6,271.5 480.3,271.5 480.3,278 464.3,278 464.3,284.9 479.5,284.9 479.5,291.5 
		464.3,291.5 464.3,299 481,299 481,305.6 454.6,305.6 	"/>
	<polygon id="polygon6826" class="st5" points="454.6,271.5 480.3,271.5 480.3,278 464.3,278 464.3,284.9 479.5,284.9 479.5,291.5 
		464.3,291.5 464.3,299 481,299 481,305.6 454.6,305.6 	"/>
</g>
</svg>
