<?xml version="1.0" encoding="utf-8"?>
<!-- Generator: Adobe Illustrator 27.2.0, SVG Export Plug-In . SVG Version: 6.00 Build 0)  -->
<svg version="1.1" id="Layer_1" xmlns="http://www.w3.org/2000/svg" xmlns:xlink="http://www.w3.org/1999/xlink" x="0px" y="0px"
	 viewBox="0 0 35 35" style="enable-background:new 0 0 35 35;" xml:space="preserve">
<style type="text/css">
	.st0{fill:#231F20;}
	.st1{fill:#FFFFFF;}
</style>
<g>
	<path class="st0" d="M29.68,33.5c2.11,0,3.82-1.71,3.82-3.82V5.32c0-2.11-1.71-3.82-3.82-3.82H5.32C3.21,1.5,1.5,3.21,1.5,5.32
		v24.35c0,2.11,1.71,3.82,3.82,3.82H29.68z"/>
	<path class="st1" d="M5.32,2.15c-1.75,0-3.18,1.42-3.18,3.17v24.36c0,1.75,1.43,3.17,3.18,3.17h24.35c1.75,0,3.17-1.42,3.17-3.17
		V5.32c0-1.75-1.42-3.17-3.17-3.17H5.32z"/>
	<rect x="16.89" y="4.3" class="st0" width="1.2" height="4.56"/>
	<rect x="16.82" y="26.48" class="st0" width="1.2" height="4.56"/>
	<rect x="26.34" y="16.79" class="st0" width="4.56" height="1.2"/>
	<rect x="4.07" y="16.71" class="st0" width="4.56" height="1.2"/>
	
		<rect x="7.49" y="9.41" transform="matrix(0.4857 -0.8741 0.8741 0.4857 -6.0627 13.0839)" class="st0" width="1.2" height="4.56"/>
	
		<rect x="11.71" y="5.57" transform="matrix(0.8471 -0.5314 0.5314 0.8471 -2.2899 7.7397)" class="st0" width="1.2" height="4.56"/>
	
		<rect x="22.5" y="24.87" transform="matrix(0.8657 -0.5005 0.5005 0.8657 -10.4892 15.2051)" class="st0" width="1.2" height="4.56"/>
	
		<rect x="26.61" y="20.59" transform="matrix(0.4857 -0.8741 0.8741 0.4857 -5.9928 35.5461)" class="st0" width="1.2" height="4.56"/>
	
		<rect x="9.64" y="26.59" transform="matrix(0.4856 -0.8742 0.8742 0.4856 -17.6407 24.408)" class="st0" width="4.56" height="1.2"/>
	<polygon class="st0" points="6.04,24.41 5.41,23.4 9.27,20.97 9.9,21.99 	"/>
	<polygon class="st0" points="25.35,13.71 24.75,12.67 28.7,10.39 29.3,11.43 	"/>
	<rect x="20.6" y="7.4" transform="matrix(0.4877 -0.873 0.873 0.4877 4.7382 24.0764)" class="st0" width="4.56" height="1.2"/>
	<path class="st0" d="M10.09,17.66c0-4.1,3.32-7.41,7.41-7.41c4.09,0,7.41,3.32,7.41,7.41c0,4.09-3.32,7.41-7.41,7.41
		C13.4,25.06,10.09,21.75,10.09,17.66"/>
</g>
</svg>
